/* XPM */
static char *_9f6d9d2e7d34795dccb81d7fcca1a73FoOmH4OkHovJFUse[] = {
/* columns rows colors chars-per-pixel */
"50 50 12 1 ",
"  c #6077AF",
". c #677CB0",
"X c #697DB0",
"o c #697EB0",
"O c #8491B3",
"+ c #8995B4",
"@ c #A3A9B7",
"# c #A9ADB8",
"$ c #ACB0B8",
"% c #B3B5B9",
"& c #B6B7BA",
"* c gray73",
/* pixels */
"#X         @*.                      .*@         X#",
"X          @*.                      .*@          X",
"           @*.                      .*@           ",
"           @*.                      .*@           ",
"           @*.                      .*@           ",
"           @*.                      .*@           ",
"           @*.                      .*@           ",
"OOOOOOOOOOO$*+OOOOOOOOOOOOOOOOOOOOOO+*$OOOOOOOOOOO",
"**************************************************",
"OOOOOOOOOOOOOOOOOOOOOOOO&&OOOOOOOOOOOOOOOOOOOOOOOO",
"                        %%                        ",
"                        %%                        ",
"                        %%                        ",
"                        %%                        ",
"                        %%                        ",
"                        %%                        ",
"                        %%                        ",
"                        %%                        ",
"OOOOOOOOOOOOOOOOOOOOOOOO&&OOOOOOOOOOOOOOOOOOOOOOOO",
"**************************************************",
"OOOOOOOOOOO$*+OOOOOOOOOOOOOOOOOOOOOO+*$OOOOOOOOOOO",
"           @*.                      .*@           ",
"           @*.                      .*@           ",
"           @*.                      .*@           ",
"           @*.                      .*@           ",
"           @*.                      .*@           ",
"           @*.                      .*@           ",
"           @*.                      .*@           ",
"           @*.                      .*@           ",
"OOOOOOOOOOO$*+OOOOOOOOOOOOOOOOOOOOOO+*$OOOOOOOOOOO",
"**************************************************",
"OOOOOOOOOOOOOOOOOOOOOOOO&&OOOOOOOOOOOOOOOOOOOOOOOO",
"                        %%                        ",
"                        %%                        ",
"                        %%                        ",
"                        %%                        ",
"                        %%                        ",
"                        %%                        ",
"                        %%                        ",
"                        %%                        ",
"OOOOOOOOOOOOOOOOOOOOOOOO&&OOOOOOOOOOOOOOOOOOOOOOOO",
"**************************************************",
"OOOOOOOOOOO$*+OOOOOOOOOOOOOOOOOOOOOO+*$OOOOOOOOOOO",
"           @*.                      .*@           ",
"           @*.                      .*@           ",
"           @*.                      .*@           ",
"           @*.                      .*@           ",
"           @*.                      .*@           ",
"X          @*X                      .*@          X",
"#X         @*.                      .*@         X#"
};
