/* XPM */
static char *_1021152278a4f1289f433858311c8ea2gEOgjac8JzClHv4[] = {
/* columns rows colors chars-per-pixel */
"50 50 31 1 ",
"  c None",
". c #775539",
"X c #795539",
"o c #7C583C",
"O c #7F5A3D",
"+ c #8C6444",
"@ c #9C7649",
"# c #9D774B",
"$ c #A17B4C",
"% c #A07A4D",
"& c #A27C4E",
"* c #A77C53",
"= c #A87C53",
"- c #AC7E56",
"; c #AC7F57",
": c #AD8655",
"> c #AE8058",
", c #B08159",
"< c #B18259",
"1 c #B1825B",
"2 c #B5865F",
"3 c #B9915D",
"4 c #BA8C65",
"5 c #C59874",
"6 c #C79A77",
"7 c #CEA17E",
"8 c #D6AA70",
"9 c #ECC3A5",
"0 c #F6CDB2",
"q c #FED6BB",
"w c #FFD7BD",
/* pixels */
"                                                  ",
"       XoooooooooooooooooooooooooooooooooX        ",
"       +,,,,,,,,,,,,,,,,,,,,,,,,,,,,,,,,,O        ",
"       +,,,,,,,,,,,,,,,,,,,,,,,,,,,,,,,,,o        ",
"       +,,,,,,,,,,,,,,,,,,,,,,,,,,,,,,,,,O        ",
"       +,,,,,,,,,,,,,,,,,,,>,,,,,,,,,,,,,O        ",
"       +,,,-@%%%%%%%%#,,,,>@%%%%%%%%#,,,,O        ",
"       +,,,-:88888888&,,,,-:88888888&,,,,O        ",
"       +,,,-:88888888&,,,,-:88888888&,,,,O        ",
"       +,,,-:88888888&,,,,-:88888888&,,,,O        ",
"       +,,,-:88888888&,,,,-:88888888&,,,,O        ",
"       +,,,-:88888888&,,,,-:88888888&,,,,O        ",
"       +,,,-:88888888&,,,,-:88888888&,,,,O        ",
"       +,,,-:88888888&,,,,-:88888888&,,,,O        ",
"       +,,,-:88888888&,,,,-:88888888&,,,,O        ",
"       +,,,-:88888888&,,,,-:88888888&,,,,O        ",
"       +,,,-:88888888&,,,,-:88888888&,,,,O        ",
"       +,,,-:88888888&,,,,-:88888888&,,,,O        ",
"       +,,,-:88888888&,,,,-:88888888&,,,,O        ",
"       +,,,-:88888888&,,,,-:88888888&,,,,O        ",
"       +,,,-:88888888&,,,,-:88888888&,,,,O        ",
"       +,,,-:88888888&,,,>-:88888888&,,,,O        ",
"       +,,,-:88888888&,,,,-:88888888&,,,,O        ",
"       +,,>>@%%%%%%%%#,,,,>@%%%%%%%%#,,,,O        ",
"       +,,,,,,,,,,,,,,,,,,,,,,,,,,,,,,,,,O        ",
"       +,,,,,,,,,,,,,,,,,,,,,,,,,,,,,904,o        ",
"       +,,,,,,,,,,,,,,,,,,,,,,,,,,,,4qw6,O        ",
"       +,,,,,,,,,,,,,,,,,,,,,,,,,,,,-57,,O        ",
"       +,,,>********==,,,,>*****=***-,,,,O        ",
"       +,,,-&33333333@,,,>-&33333333@,,,,O        ",
"       +,,>-:88888888&,,,,-:88888888&>,,,O        ",
"       +,,,-:88888888&,,,,-:88888888&,,,,O        ",
"       +,,,-:88888888&,,,,-:88888888&,,,,O        ",
"       +,,,-:88888888&,,,,-:88888888&,,,,O        ",
"       +,,,-:88888888&,,,,-:88888888&,,,,O        ",
"       +,,,-:88888888&,,,,-:88888888&,,,,O        ",
"       +,,,-:88888888&,,,,-:88888888&,,,,O        ",
"       +,,,-:88888888&,,,,-:88888888&,,,,O        ",
"       +,,,-:88888888&,,,,-:88888888&,,,,O        ",
"       +,,,-:88888888&,,,,-:88888888&,,,,O        ",
"       +,,,-:88888888&,,,,-:88888888&,,,,O        ",
"       +,,>-:88888888&,,,>-:88888888&,,,,O        ",
"       +,,,-:88888888&,,,,-:88888888&,,,,O        ",
"       +,,,>@%%%%%%%%#,,,,>@%%%%%%%%#,,,,O        ",
"       +,,,,,,,,,,,,,,,,,,,,,,,,,,,,,,,,,O        ",
"       +,,,,,,,,,,,,,,,,,,,,,,,,,,,,,,,,,O        ",
"       +,,,,,,,,,,,,,,,,,,,,,,,,,,,,,,,,,O        ",
"       +,,,,,,,,,,,,,,,,,,,,,,,,,,,,,,,,,O        ",
"       XoooooooooooooooooooooooooooooooooX        ",
"                                                  "
};
