/* XPM */
static char *icons8_door_551674183667[] = {
/* columns rows colors chars-per-pixel */
"55 55 59 1 ",
"  c None",
". c #1D202A",
"X c #1E202A",
"o c #1F202A",
"O c #1F212A",
"+ c #1E212B",
"@ c #1F212B",
"# c #20212B",
"$ c #20222B",
"% c #22222A",
"& c #22232C",
"* c #2B292F",
"= c #373033",
"- c #5F4C41",
"; c #634E43",
": c #62534F",
"> c #67564F",
", c #66574F",
"< c #7C5F4B",
"1 c #655B5B",
"2 c #84644E",
"3 c #85654E",
"4 c #86664F",
"5 c #87664F",
"6 c #896B57",
"7 c #987255",
"8 c #9C7457",
"9 c #9C765A",
"0 c #A27958",
"q c #A67B59",
"w c #A87C5A",
"e c #AB7F5B",
"r c #B1825D",
"t c #B88660",
"y c #BA8860",
"u c #BB8961",
"i c #BD8962",
"p c #C79164",
"a c #C69065",
"s c #C89265",
"d c #CF9668",
"f c #D29868",
"g c #D59A69",
"h c #D79B6A",
"j c #D99D6B",
"k c #DA9D6C",
"l c #DD9F6D",
"z c #DFA16D",
"x c #E2A26F",
"c c #E4A46E",
"v c #E5A46F",
"b c #E5A56F",
"n c #E6A670",
"m c #E7A671",
"M c #E8A770",
"N c #EAA871",
"B c #AFA4A5",
"V c #C3B5B7",
"C c #F9E7E5",
/* pixels */
"                                                       ",
"                                                       ",
"                                                       ",
"           #@@@@@@@@@@@@@@@@@@@@@@@@@@@@##             ",
"          @<qqqqqqqqqqqqqqqqqqqqqqqqqqqq8&             ",
"          @dNNNiqqqqqqqqqqqqqqqqqqqqqqwkN=@            ",
"          @dNNNuqqqqqqqqqqqqqqqqqqqqqq0;N=#            ",
"          @dgbNNNNNNNNNNNNNNNNNNNNNNNNN-N=#            ",
"          @d3aNNNNNNNNNNNNNNNNNNNNNNNNN-N=@            ",
"          @d3aNNNNNNNNNNNNNNNNNNNNNNNNM-N=@            ",
"          @d3aNNNNNNNNNNNNNNNNNNNNNNNNN;N=@            ",
"          @d3aNNNNNNNNNNNNNNNNNNNNNNNNN3N=@            ",
"          @d3aNNNNNNNNNNNNNNNNNNNNNNNNNNN=@            ",
"          @d3aNNNNNNNNNNNNNNNNNNNNNNNNNNN=@            ",
"          @d3aNNNNNNNNNNNNNNNNNNNNNNNNNtN=@            ",
"          @d3aNNNNNNNNNNNNNNNNNNNNNNNNN-N=@            ",
"          @d3aNNNNNNNNNNNNNNNNNNNNNNNNM;M=&            ",
"          @d3aNNNNNNNNNNNNNNNNNNNNNNNNM-M=@            ",
"          @d3aNNNNNNNNNNNNNNNNNNNNNNNNN-N=@            ",
"          @d3aNNNNNNNNNNNNNNNNNNNNNNNNN;N=@            ",
"          @d3aNNNNNNNNNNNNNNNNNNNNNNNNM-N=@            ",
"          @d3aNNNNNNNNNNNNNNNNNNNNNNNNM-N=@            ",
"          @d3aNNNNNNNNNNNNNNNNNNNNNNNNM;N=@            ",
"          @d3aNNNNNNNNNNNNNNNNNNNNNNNNM-N=@            ",
"          @d3aNNNNNNNNNNNNNNNNNNNNNNNNM;N=@            ",
"          @d3aNNNNNNNNNNNNNNNNNNNNNNNNM-N=@            ",
"          @d3aNNNNNNNNNNNNNNNNNNNNNNNNN-N=@            ",
"          @d3aNNNNNNNNNNNNNNNNNNMb99bMN;N=@            ",
"          @d3aNNNNNNNNNNNNNNNNNNN,BB,NN-N=@            ",
"          @d3aNNNNNNNNNNNNNNNNNNM1CC1mN-N=@            ",
"          @d3aNNNNNNNNNNNNNNNNNNN:VV:NN-N=@            ",
"          @d3aNNNNNNNNNNNNNNNNNNMl66zNN-N=@            ",
"          @d3aNNNNNNNNNNNNNNNNNNNNNNNNN-N=@            ",
"          @drjNNNNNNNNNNNNNNNNNNNNNNNNN-N=@            ",
"          @dNMNNNNNNNNNNNNNNNNNNNNNNNNN-N=@            ",
"          @dfbNNNNNNNNNNNNNNNNNNNNNNNNN-N=@            ",
"          @d3aNNNNNNNNNNNNNNNNNNNNNNNNN-N=@            ",
"          @d3aNNNNNNNNNNNNNNNNNNNNNNNNN-N=@            ",
"          @d5sNNNNNNNNNNNNNNNNNNNNNNNNN-N=@            ",
"          @dmNNNNNNNNNNNNNNNNNNNNNNNNNN-N=@            ",
"          @dNNNNNNNNNNNNNNNNNNNNNNNNNNN-N=@            ",
"          @dzMNNNNNNNNNNNNNNNNNNNNNNNNN-N=@            ",
"          @d3aNNNNNNNNNNNNNNNNNNNNNNNNN-N=@            ",
"          @d3aNNNNNNNNNNNNNNNNNNNNNNNNN-N=@            ",
"          @d3aNNNNNNNNNNNNNNNNNNNNNNNNN-N=@            ",
"          @d3aNNNNNNNNNNNNNNNNNNNNNNNNN-N=@            ",
"          @d3aNNNNNNNNNNNNNNNNNNNNNNNNN-N=@            ",
"          @d3aNNNNNNNNNNNNNNNNNNNNNNNNN-N=@            ",
"          #d3aNNNNNNNNNNNNNNNNNNNNNNNNN-N=@            ",
"          @d3aNNNNNNNNNNNNNNNNNNNNNNNNN-N=@            ",
"          &frgNNNNNNNNNNNNNNNNNNNNNNNNN7N=@            ",
"          #rmNNNNNNNNNNNNNNNNNNNNNNNNNNNx*             ",
"        @@@@@@@@@@@@#@@@@@@@@@@@O@O@$@@O@@@@           ",
"           @@@@@@@@@@@.@@@@.@@@@@@@@@@.@@              ",
"                                                       "
};
