/* XPM */
static char *New_Project__3_1674181072[] = {
/* columns rows colors chars-per-pixel */
"50 50 205 2 ",
"   c None",
".  c #B8882A",
"X  c #B9892B",
"o  c #B98A2C",
"O  c #BA8B2D",
"+  c #BA8C2E",
"@  c #BB8C2E",
"#  c #BC8F30",
"$  c #BD9032",
"%  c #BE9234",
"&  c #BF9436",
"*  c #C09535",
"=  c #C09537",
"-  c #C99E36",
";  c #C29A3C",
":  c #CDA232",
">  c #CEA437",
",  c #CEA83E",
"<  c #D7AD34",
"1  c #D8B33F",
"2  c #E1B52B",
"3  c #E2B62D",
"4  c #E2B72F",
"5  c #E3B931",
"6  c #E3B932",
"7  c #E3BA33",
"8  c #E3BB34",
"9  c #E3BB35",
"0  c #E4BC36",
"q  c #E4BC37",
"w  c #E2BC3A",
"e  c #E4BE3A",
"r  c #E5BF3B",
"t  c #E5BF3C",
"y  c #E5C03D",
"u  c #E5C13E",
"i  c #C59E40",
"p  c #C69F40",
"a  c #C6A042",
"s  c #C6A143",
"d  c #C7A143",
"f  c #C7A244",
"g  c #C8A446",
"h  c #CBA847",
"j  c #C9A548",
"k  c #CBA94B",
"l  c #CBAA4C",
"z  c #CCAB4D",
"x  c #CFAD4C",
"c  c #CDAD4E",
"v  c #D3B147",
"b  c #DDBA42",
"n  c #DEBC47",
"m  c #D5B64F",
"M  c #CDAD50",
"N  c #D0B153",
"B  c #D0B355",
"V  c #D1B455",
"C  c #D2B657",
"Z  c #DCBE51",
"A  c #D3B759",
"S  c #D3B75A",
"D  c #D7BB58",
"F  c #D4BA5B",
"G  c #D4BA5C",
"H  c #D6BD5E",
"J  c #D7BE60",
"K  c #DDC25B",
"L  c #DDC45F",
"P  c #E6C240",
"I  c #E6C241",
"U  c #E6C341",
"Y  c #E6C343",
"T  c #E6C443",
"R  c #E6C545",
"E  c #E7C646",
"W  c #E7C748",
"Q  c #E5C54A",
"!  c #E7C84A",
"~  c #E6C84F",
"^  c #E8C94C",
"/  c #E8C94D",
"(  c #E9CB4F",
")  c #E2C555",
"_  c #E9CC50",
"`  c #E9CC51",
"'  c #E9CD52",
"]  c #EACE54",
"[  c #EACF56",
"{  c #EBD057",
"}  c #EAD159",
"|  c #EBD25B",
" . c #ECD35C",
".. c #ECD35D",
"X. c #EBD45F",
"o. c #D8C062",
"O. c #DAC365",
"+. c #DBC566",
"@. c #DFC862",
"#. c #DBC769",
"$. c #DECA68",
"%. c #DDC86B",
"&. c #DECB6D",
"*. c #DFCD70",
"=. c #E4CD63",
"-. c #E7D265",
";. c #EDD661",
":. c #ECD662",
">. c #EAD567",
",. c #EDD864",
"<. c #EDD866",
"1. c #EED966",
"2. c #ECD769",
"3. c #ECD869",
"4. c #EDDA68",
"5. c #EDDA69",
"6. c #EEDB69",
"7. c #EEDB6B",
"8. c #EDDB6D",
"9. c #EEDD6D",
"0. c #EDDC6F",
"q. c #EEDC6F",
"w. c #EFDE6F",
"e. c #F0DF6F",
"r. c #E1CF70",
"t. c #E1D071",
"y. c #E3D476",
"u. c #E7D977",
"i. c #EBDB72",
"p. c #EDDE73",
"a. c #E3D678",
"s. c #E4D67A",
"d. c #E5D878",
"f. c #ECDF7A",
"g. c #E8DD7E",
"h. c #F0DF70",
"j. c #EEE075",
"k. c #EFE177",
"l. c #EFE178",
"z. c #EFE37B",
"x. c #F0E072",
"c. c #F0E275",
"v. c #F1E376",
"b. c #F2E477",
"n. c #F0E378",
"m. c #F2E57B",
"M. c #F0E57D",
"N. c #F1E67C",
"B. c #F2E67D",
"V. c #F1E67F",
"C. c #F2E77F",
"Z. c #F3E87E",
"A. c #EBE181",
"S. c #EBE082",
"D. c #ECE180",
"F. c #EAE184",
"G. c #ECE485",
"H. c #ECE486",
"J. c #EDE687",
"K. c #EFE98A",
"L. c #EFE98D",
"P. c #F1E781",
"I. c #F1E782",
"U. c #F3E980",
"Y. c #F2E983",
"T. c #F4EA82",
"R. c #F3EB84",
"E. c #F3EB85",
"W. c #F4EC84",
"Q. c #F1EA88",
"!. c #F2EB88",
"~. c #F3ED89",
"^. c #F3ED8B",
"/. c #F5EE88",
"(. c #F1EC8D",
"). c #F3EE8C",
"_. c #F1ED8F",
"`. c #F4EF8C",
"'. c #F6F08B",
"]. c #F5F08D",
"[. c #F5F08F",
"{. c #F7F38F",
"}. c #F1EE92",
"|. c #F4F090",
" X c #F4F091",
".X c #F5F192",
"XX c #F5F292",
"oX c #F7F493",
"OX c #F3F195",
"+X c #F5F394",
"@X c #F4F396",
"#X c #F6F494",
"$X c #F6F596",
"%X c #F8F797",
"&X c #F6F698",
"*X c #F7F799",
"=X c #F5F59A",
"-X c #F7F79A",
";X c #F7F89A",
":X c #F7F89B",
">X c #F7F89C",
",X c #F7F99D",
"<X c #F9F99A",
"1X c #F8FA9E",
"2X c #F8FB9F",
/* pixels */
"                                      <X<X<X<X<X'.W.                                                ",
"                                #X X#X X X%XoX'.W.Z.c.e.e.,.                                        ",
"                            G._._._._.%X%X{.'.W.Z.c.x.6.<...|                                       ",
"                           X X X X X%X%XoX/.W.Z.c.x.e...X.| [ _                                     ",
"                        C C C C F %X%X{./.R.Z.c.p.3.;...| [ _ / E P                                 ",
"                        _._._._.%X%XoX'.W.Z.c.@ . . . . , _ / W E u                                 ",
"                      A C A A G.%XoX'.W.m.# =.m.x.6.) O O O b T u r 0                               ",
"                    K.K.K.K.Q.%X{.'.W.i./.T.n.p.e.....{ _ # # > r 0 6                               ",
"                    t.t.t.t.%X{./.R.Z.W.Z.m.h.6... .{ ( ~ E * % < q 3 2                             ",
"                  G.G.G.G.G.{.'.T.Z./.T.v.h.6.;. .{ ( ! E u y * & : 2 3 q                           ",
"                  F.F.F.F.{.W.T.Z.T.Z.c.e.1.;.| { ( ! T u y 8 4 & & 2 q q                           ",
"                S.S.S.S.F.'.W.Z.m.R.m.e.e.;. .| ( / E T u 0 4 2 - & > q w                           ",
"                g.g.g.g.S.R.Z.v.Z.m.x.e.;.| { _ / E P t 0 5 2 4 6 ; ; q u P                         ",
"                H H H H T.Z.v.e.v.x.6...| [ _ / E P r 9 5 2 3 5 w w p b T !                         ",
"              u.u.d.d.d.Z.v.e.k.e.6.;.| [ _ / E P r 9 4 3 3 5 0 w I i , E /                         ",
"              N N N N N v.e.6.e.<.;.| [ _ ! E P r 9 3 2 3 5 0 u I Y n d / _                         ",
"              y.y.y.y.a.x.6.,.6.;...{ _ / E P t r 5 2 3 5 9 t P E ! / f ~ _ {                       ",
"              z l l l =.9.,.;.;.| { _ / E P t q 5 2 3 6 9 t P R / / _ j x | |                       ",
"              r.r.r.r.6.,.X.X...[ _ / E P t 9 5 2 3 6 q r P R ! _ _ { k k | X.                      ",
"              &.&.&.&.,.X.| | { _ / E U t 9 5 2 3 5 q t P R ! _ _ { | F k ..<.                      ",
"            +.O.O.O.O.:.| [ [ _ ! E U r 9 3 3 3 6 q t P R ! _ [ | ..:.-.c <.6.9.                    ",
"            #.#.#.#.$.| { ( ( ! E U r 9 3 3 3 5 q t P E ! / [ { X.;.6.9.N 6.j.v.                    ",
"            J J O.J K [ _ / / E u u 9 5 3 3 5 9 t P R ! / ' [  .:.<.9.c.B 9.k.z.                    ",
"            O.O.O.O.$._ / ! E u t 0 5 3 3 5 9 r P R ! _ ' {  .;.6.9.c.m.C k.m.m.                    ",
"            d p d p v ~ E E u y 6 6 3 3 6 q r P R / _ ' { ..:.2.9.k.m.R.G l.T.E.                    ",
"            J J J J K W T u y 8 3 2 3 6 q t P E ! / ' { ..:.<.p.m.m.R.'.G G.~.'.                    ",
"            B N N N m E u r 6 4 2 3 4 q t P E W _ [ { :.;.6.h.n.Z.W._.#XJ ~.'. X                    ",
"            F F F F D u r 8 6 2 3 6 q r P E ! / _ {  .,.<.9.c.m.W./. X=XJ '.+X=X                    ",
"            l c c c c r q 6 2 3 6 q r u E W ~ _ { ..;.6.9.c.m.~.]. X;X@XO. X=X>X                    ",
"              C C C C 8 6 3 3 6 w r u E W / _ | ..:.6.9.c.m.E.`.#X;X>Xd.+.<X2X                      ",
"              B N C B 6 2 2 6 q u u E ! _ [ [ ..:.6.h.n.m.E.`.#X>X2X=X&.%.>X1X                      ",
"              p d d ; < 3 3 q t P E ! / _ | ..:.6.p.n.P.E.`.#X>X>X=X'.*.a.;X X                      ",
"              c M M M c 4 9 r P E ! _ _ | X.:.6.9.k.Z.~.].+X;X>X#X XR.t.#X X'.                      ",
"              d s p s p 5 9 r R ! / _ | X.;.<.9.k.m.W.].|.;X2X#X|._.S.y.=X`.                        ",
"              z l l l l q r t W ( _ { X.;.6.0.k.z.R.~.#X;X2X=X|.~.P.d.s. X/.                        ",
"                & & & & q u R W _ { X.:.6.9.k.m.R.].#X>X2X=X].~.G.l.g.K.~.P.                        ",
"                j j j j j T E / { X.:.6.9.l.m.W.].#X;X>X;X|.~.P.k.S.F.~.T.z.                        ",
"                s f f f s ! / _ { :.4.9.m.Z.R.'.#X;X>X#X].K.z.l.F.G.G.E.z.                          ",
"                  s i s i Q ( _ { <.9.k.m.R.'. X;X2X&X|._.P.z.p.J.G.E.z.l.                          ",
"                  i i i i , _ |  .X.k.m.R.]. X=X2X=X].~.T.l.p.L.Q.Q.m.l.p.                          ",
"                    ; ; ; ; { | ..:.0.E.~.#X<X1X%X}.Q.m.z.p.(.}.Q.m.k.p.                            ",
"                    ; ; ; ; ; :.,.6.9.m.#X>X2X;X XQ.P.n.p.+X+X_.z.k.0.                              ",
"                      # O # X Z 6.9.c.m.T.=X#X XQ.m.P.=X=X=XE.z.p.p.6.                              ",
"                        & & & & e.c.m.T.~.}. X2X1X2X1X1X+XP.z.p.0.2.                                ",
"                        X . . . # n.P.E.'. X=X>X1X#X X/.E.z.l.0.:.2.                                ",
"                          & # # # % E.`. X;X1X>X#X X/.P.m.c.i.6.                                    ",
"                            O # @ @ #  X;X2X1X#X}.~.I.z.c.i.6.                                      ",
"                                @ @ @ @ g ;X#X X/.P.z.k.i.2.                                        ",
"                                      O O . . f f.n.                                                ",
"                                                                                                    "
};
