/* XPM */
static char *coin61674391951[] = {
/* columns rows colors chars-per-pixel */
"50 50 234 2 ",
"   c None",
".  c #B8882A",
"X  c #B9892B",
"o  c #B98A2B",
"O  c #BA8B2D",
"+  c #BA8C2E",
"@  c #BB8D2F",
"#  c #BD8F31",
"$  c #BE9231",
"%  c #BD9032",
"&  c #BE9234",
"*  c #BF9334",
"=  c #BF9335",
"-  c #C29530",
";  c #C19535",
":  c #C29735",
">  c #C69930",
",  c #C89D35",
"<  c #C09638",
"1  c #C19739",
"2  c #C2993B",
"3  c #C29A3B",
"4  c #C39C3D",
"5  c #C39C3E",
"6  c #C49D3F",
"7  c #C69F3F",
"8  c #CEA333",
"9  c #CDA438",
"0  c #D2A732",
"q  c #D5AE3C",
"w  c #DEB533",
"e  c #DDB73C",
"r  c #E1B52A",
"t  c #E1B52B",
"y  c #E2B62C",
"u  c #E2B72F",
"i  c #E2B830",
"p  c #E3B931",
"a  c #E3BA33",
"s  c #E3BB34",
"d  c #E3BB35",
"f  c #E4BC36",
"g  c #E2BC3B",
"h  c #E4BD38",
"j  c #E4BE3A",
"k  c #E5BF3B",
"l  c #E2BD3F",
"z  c #E5C03D",
"x  c #E5C13F",
"c  c #C6A043",
"v  c #C7A143",
"b  c #C9A241",
"n  c #CBA540",
"m  c #CBA642",
"M  c #C8A344",
"N  c #C9A547",
"B  c #CAA84A",
"V  c #CBA94B",
"C  c #CEAD4D",
"Z  c #CDAC4E",
"A  c #CDAD4F",
"S  c #D0AB41",
"D  c #DDBB46",
"F  c #DFBC45",
"G  c #D7B74C",
"H  c #CFAF50",
"J  c #CFB051",
"K  c #CFB152",
"L  c #D3B451",
"P  c #D6B751",
"I  c #D0B254",
"U  c #D0B355",
"Y  c #D2B557",
"T  c #D6B955",
"R  c #DCBE50",
"E  c #D3B758",
"W  c #D3B759",
"Q  c #D4B95B",
"!  c #D6BD5E",
"~  c #DBBF59",
"^  c #D7BF60",
"/  c #DFC457",
"(  c #E6C240",
")  c #E6C342",
"_  c #E6C443",
"`  c #E5C344",
"'  c #E6C545",
"]  c #E7C546",
"[  c #E7C648",
"{  c #E7C748",
"}  c #E7C749",
"|  c #E0C04C",
" . c #E4C64E",
".. c #E8C84A",
"X. c #E8C84B",
"o. c #E8C94C",
"O. c #E8CA4E",
"+. c #E3C551",
"@. c #E3C755",
"#. c #E9CB50",
"$. c #E9CC51",
"%. c #E9CD52",
"&. c #EACE53",
"*. c #EACF55",
"=. c #EACF57",
"-. c #E1C75A",
";. c #E4CB5B",
":. c #E7CF5F",
">. c #EBD057",
",. c #EAD159",
"<. c #EAD15A",
"1. c #EBD15A",
"2. c #EBD25A",
"3. c #EBD25C",
"4. c #ECD35D",
"5. c #EBD45E",
"6. c #D9C364",
"7. c #DAC466",
"8. c #DEC864",
"9. c #DBC668",
"0. c #DECA6A",
"q. c #DFCB6B",
"w. c #DECC6E",
"e. c #DFCD6F",
"r. c #E1CA62",
"t. c #E4CD62",
"y. c #E6D167",
"u. c #ECD560",
"i. c #EDD660",
"p. c #EDD661",
"a. c #ECD663",
"s. c #ECD764",
"d. c #EDD865",
"f. c #EDD966",
"g. c #E8D56A",
"h. c #EDDA69",
"j. c #EEDB69",
"k. c #ECD86A",
"l. c #ECD96B",
"z. c #EDDA6A",
"x. c #EFDC6A",
"c. c #ECDB6F",
"v. c #EEDD6D",
"b. c #EFDE6D",
"n. c #EFDD6E",
"m. c #E0CF71",
"M. c #E1D071",
"N. c #E2D274",
"B. c #E2D375",
"V. c #ECDC70",
"C. c #EDDD71",
"Z. c #EFDF70",
"A. c #EDDD73",
"S. c #EEDF74",
"D. c #EEDF76",
"F. c #E5D678",
"G. c #E6D87A",
"H. c #E7DB7D",
"J. c #E9DB79",
"K. c #EADB78",
"L. c #E9DD7E",
"P. c #EFE279",
"I. c #EFE27A",
"U. c #EEE27B",
"Y. c #EFE37B",
"T. c #ECE17F",
"R. c #F0E172",
"E. c #F0E174",
"W. c #F0E175",
"Q. c #F1E274",
"!. c #F1E375",
"~. c #F0E277",
"^. c #F0E37B",
"/. c #F0E479",
"(. c #F2E579",
"). c #F1E57B",
"_. c #F2E67B",
"`. c #F0E47D",
"'. c #F1E67D",
"]. c #F1E67F",
"[. c #F2E77E",
"{. c #E8DE80",
"}. c #EAE082",
"|. c #ECE282",
" X c #ECE283",
".X c #EAE185",
"XX c #EEE584",
"oX c #EFE785",
"OX c #EDE586",
"+X c #EDE688",
"@X c #EEE98D",
"#X c #F1E782",
"$X c #F3E980",
"%X c #F2E982",
"&X c #F4EA82",
"*X c #F1E984",
"=X c #F1E885",
"-X c #F3EB84",
";X c #F2EA85",
":X c #F2EA87",
">X c #F3EC87",
",X c #F5ED86",
"<X c #F0E98B",
"1X c #F3EC88",
"2X c #F4ED89",
"3X c #F5EF88",
"4X c #F4ED8A",
"5X c #F4EE8B",
"6X c #F0EB8F",
"7X c #F1EC8D",
"8X c #F2EE8F",
"9X c #F4EF8D",
"0X c #F6F18C",
"qX c #F4F08F",
"wX c #F6F38F",
"eX c #F2EF91",
"rX c #F5F190",
"tX c #F4F191",
"yX c #F5F292",
"uX c #F5F393",
"iX c #F7F592",
"pX c #F4F397",
"aX c #F6F594",
"sX c #F6F495",
"dX c #F6F596",
"fX c #F6F597",
"gX c #F6F697",
"hX c #F8F796",
"jX c #F6F79A",
"kX c #F7F89B",
"lX c #F7F89C",
"zX c #F8F899",
"xX c #F8FA9E",
"cX c #F8FB9F",
/* pixels */
"                                                                                                    ",
"                                    1.i.d.z.R.Q._.&X,XwXM.M.M.M.E                                   ",
"                              ..O.&.>.4.5.s.z.R.Q._.$X,X0XiXgXgXgXgXgX                              ",
"                            _ [ ..O.&.=.5.5.u.z.R.Q._.[.,X0XiXhX0.0.0.0.m.                          ",
"                        j k ( ' [ [ O.&.>.,.5.u.z.Z.R._.$X,X0XiXhXhXtXtXtXtX                        ",
"                        a s j ( _ [ ..F - O . & G x.Z.Q._.&X3X0XiXfX^ ^ ^ ^ ^                       ",
"                    r r u a s k j X X X ; q R R b X X ; Q._.&X,X0XiXhX6X8X6X@X6X                    ",
"                  a u y r u w O O , [ O.&.>.,.u.d.b.R.~.# L _.$X,X0XiXjX8X1X1X6X1X                  ",
"                  f a i r > # 8 f z _ ....&.>.,.i.d.b.R._.P.# Q.[.,X0XiXhXJ.G.G.G.F.                ",
"                z j f a ; & t i s f z _ [ ..O.>.2.i.i.b.R._.$XC !.[.,X0XiXhXOXOX+X+X#X              ",
"                ( z j s ; 0 r r i s g z ' ....&.,.4.i.d.b.Q.].&X= ].&X3X0XiXL.L.L.L.L.              ",
"              [ ' ( e ; 9 a a r t i s g ( ( ....&.>.,.i.d.b.R._.&Xb _.&X,X0XiX}.}.}.}. X            ",
"            O.O.[ _ 1 2 k j a i t t i f j z _ [ ..&.*.,.i.d.b.R._.&Xb._.$X,X9XL C Z Z Z             ",
"            *.O.O.7 7 [ ` k j a a t r i f f z _ [ ..&.&.4.i.d.x.R._.7.!._.$X,X0XG.{.{.G.J.          ",
"          ,.>.*.O.7 O.[ [ _ z j f a t t i s g z ( ..O.&.>.1.i.d.x.R._.r.R._.&X,XJ.w.w.w.w.          ",
"          4.,.*.G v $.O.[ ' ( k f f i t r i s g ( ' ' ..&.,.5.i.d.b.Q.T b.Q.].$X,XF.F.F.F.          ",
"          i.4.,.c @.*.$.O...' ( z f s i r r a f k ( ` [ O.&.=.1.i.f.b.!./ Z.~._.[.6.6.6.7.6.        ",
"        v.d.i.4.N 5.1.*.&.O. .' _ z j s u y r t d j z ( [ O.O.>.2.4.f.b.g.z.R.Q._.N.B.M.N.N.        ",
"        Z.z.d.P C s.u.5.*.&.O.[ [ ( z f a a t t i d j k _ ' ..&.>.>.i.d.x.u.x.Z.~.~.M.m.M.m.        ",
"        S.Z.z.Z y.z.u.u.5.*.$.O...' _ z j s a t t i i j z _ ....&.>.4.4.s.;.s.z.x.Q.Y K K Y K       ",
"        _.Z.Z.H ~.v.s.s.u.1.*.$.O...' ( k j a i t t i s j z ' [ O.&.=.1.i.@.i.d.x.b.w.w.w.w.w.      ",
"        ]./.~.C /.~.b.z.u.5.1.*.&.O.X.' ( k j s a t r a f j z _ [ O.&.=.,.-.4.i.s.x.K K K K K       ",
"        &X].^.K $X].S.E.z.s.5.1.*.$.$.[ ' ( z j a i t t i s j z ( [  .*.*.5.>.1.5.s.9.9.9.9.9.      ",
"        9X-X#XY 3X$X^.Q.b.z.s.u.5.*.$.O.[ [ ' k j s a t t i s j z ( [ [ $.*.&.=.,.5.N B B B B       ",
"        tX3X#XE 0X3X#X]./.Z.z.i.u.1.1.$.O.O.[ ` k j f a y r u a g k ( [ [ &.O.*.>.1.6.6.6.6.6.      ",
"        uXtX#XE gX9X1X$X_.S.b.s.s.5.1.*.$.O.[ ' x j f s u r r a d k ( [ [ O.[ $.&.*.v v v M c       ",
"        fXgXeX! fXgX9X3X#X].R.v.g.i.u.1.*.&.O.[ [ x z f s u r r i s j ( ( [ [ O.O.&.! ! ! ! !       ",
"        cXfXgX^ xXlXhXtX3X#X_.E.Z.z.i.5.1.*.$.O.[ [ _ z f s u u t i s k k ` ' [ ..O.Q Q Q Q Q       ",
"        xXcXxX^ fXxXxXfXtX1X$X].P.Z.z.u.5.5.*.$.O...[ z z j s a y r u s j | ( ` [ ..Y K I Y K       ",
"        sXfXcX7.tXfXxXfXgXtX1X$X].Q.R.z.s.u.5.*.&.O...[ _ z f a a t t u a | k ( ( [ E E Y Y E       ",
"        tXjXxX7.OXtXjXxXzXgX8X,X#X].~.b.d.s.5.,.>.O.O...[ z z f a i t t t l s k ( ' H H H H K       ",
"        3XtXhXH.m.3XtXgXxXjXiX9X>X$X_.S.b.z.i.5.,.>.&.O...[ ( z j s a t t i s s k D K K I I         ",
"        ;X9X9XuXm.;X8XeXgXxXfXhXeX3X&X^.Q.E.z.i.5.1.1.$.O.[ ' ( z j s a g r u a s 1 1 1 1 1         ",
"          ;X1XtXN.P.;X1XtXgXcXfXhXeX1X&X].S.Z.d.s.5.5.*.&.O.[ [ ` z f a +.u r u u H C Z H H         ",
"          #X#X1X XF.].#X1XtXjXxXlXjX9X1X&X].Q.E.z.s.5.3.1.$.O.X.[ ( z t.s u t r u v v v v           ",
"          /.#X#X9XF.P.^.;X9XtXjXcXfXhX9X-X#X].R.v.s.a.5.,.*.$. ...' (  .s a i r q V V V V           ",
"            P.#X1X{.{.S.^.;X9XtXfXxXlXhX9X3X&X^.S.E.d.s.4.,.*.$.O...u.l j s s i 5 c 5 7 3           ",
"            S./.#X;X.X.XS.^.#X9XtXfXxXlXuXtX1X&X/.E.E.s.s.5.1.*.&.O.[ ( k k s m m M c v             ",
"              S./.^.;X+X{.S.].#X1XtXfXxXlXfXeX3X#X^./.E.z.i.5.5.*.T.[ ( ` z j c c c v c             ",
"                S.^.#X#X6X^.S.].#X1XtXfXxXlXhXtX1X&X].Q.Z.z.s.u.@X$.O.[ ' ` ; = = = =               ",
"                V.S.^.#X@XeXV.I.^.#X9XtXfXcXlXuX9X>X$X].~.b.d.OX*.&.O.[ [ ( 5 7 5 5 5               ",
"                  V.S.I.^.eXeX#XI.^.#X9XuXfXxXlXgX8X1X$XY.~.tXu.,.*.&.O.O.= = = = =                 ",
"                  v.v.S.I.#X:XpXpXeX^.-X9XtXfXxXjXiXtX3XpXXXs.i.5.,.*.&.m 1 1 1 1                   ",
"                    g.V.S.^.#X#X9XlXlXlXfXuXuXlXlXlXkXgXQ.b.z.d.i.5.,.O O O O O                     ",
"                        v.A.I.#X#X1XeXfXxXxXcXxXgX3X1X$X_.R.b.x.z.i.= & & & &                       ",
"                        k.V.A./.#X;X3XeXjXlXcXjXtXtX9X;X]._.S.Z.z.m . . . X                         ",
"                            V.D.D.#X;X9XtXuXlXcXjXuXtX3X>X]._.Q.& # # # #                           ",
"                              V.Z./.#X-X3XeXuXlXcXjXgXtX1X$X& + O O O                               ",
"                                    /.#X;X3XeXuXxXxXlXF.X X X X X                                   ",
"                                                                                                    "
};
