/* XPM */
static char *coin71674391952[] = {
/* columns rows colors chars-per-pixel */
"50 50 205 2 ",
"   c None",
".  c #B8882A",
"X  c #B9892B",
"o  c #B98A2C",
"O  c #BA8B2D",
"+  c #BA8C2E",
"@  c #BB8C2E",
"#  c #BC8F30",
"$  c #BD9032",
"%  c #BE9234",
"&  c #BF9436",
"*  c #C09535",
"=  c #C09537",
"-  c #C99E36",
";  c #C29A3C",
":  c #CDA232",
">  c #CEA437",
",  c #CEA83E",
"<  c #D7AD34",
"1  c #D8B33F",
"2  c #E1B52B",
"3  c #E2B62D",
"4  c #E2B72F",
"5  c #E3B931",
"6  c #E3B932",
"7  c #E3BA33",
"8  c #E3BB34",
"9  c #E3BB35",
"0  c #E4BC36",
"q  c #E4BC37",
"w  c #E2BC3A",
"e  c #E4BE3A",
"r  c #E5BF3B",
"t  c #E5BF3C",
"y  c #E5C03D",
"u  c #E5C13E",
"i  c #C59E40",
"p  c #C69F40",
"a  c #C6A042",
"s  c #C6A143",
"d  c #C7A143",
"f  c #C7A244",
"g  c #C8A446",
"h  c #CBA847",
"j  c #C9A548",
"k  c #CBA94B",
"l  c #CBAA4C",
"z  c #CCAB4D",
"x  c #CFAD4C",
"c  c #CDAD4E",
"v  c #D3B147",
"b  c #DDBA42",
"n  c #DEBC47",
"m  c #D5B64F",
"M  c #CDAD50",
"N  c #D0B153",
"B  c #D0B355",
"V  c #D1B455",
"C  c #D2B657",
"Z  c #DCBE51",
"A  c #D3B759",
"S  c #D3B75A",
"D  c #D7BB58",
"F  c #D4BA5B",
"G  c #D4BA5C",
"H  c #D6BD5E",
"J  c #D7BE60",
"K  c #DDC25B",
"L  c #DDC45F",
"P  c #E6C240",
"I  c #E6C241",
"U  c #E6C341",
"Y  c #E6C343",
"T  c #E6C443",
"R  c #E6C545",
"E  c #E7C646",
"W  c #E7C748",
"Q  c #E5C54A",
"!  c #E7C84A",
"~  c #E6C84F",
"^  c #E8C94C",
"/  c #E8C94D",
"(  c #E9CB4F",
")  c #E2C555",
"_  c #E9CC50",
"`  c #E9CC51",
"'  c #E9CD52",
"]  c #EACE54",
"[  c #EACF56",
"{  c #EBD057",
"}  c #EAD159",
"|  c #EBD25B",
" . c #ECD35C",
".. c #ECD35D",
"X. c #EBD45F",
"o. c #D8C062",
"O. c #DAC365",
"+. c #DBC566",
"@. c #DFC862",
"#. c #DBC769",
"$. c #DECA68",
"%. c #DDC86B",
"&. c #DECB6D",
"*. c #DFCD70",
"=. c #E4CD63",
"-. c #E7D265",
";. c #EDD661",
":. c #ECD662",
">. c #EAD567",
",. c #EDD864",
"<. c #EDD866",
"1. c #EED966",
"2. c #ECD769",
"3. c #ECD869",
"4. c #EDDA68",
"5. c #EDDA69",
"6. c #EEDB69",
"7. c #EEDB6B",
"8. c #EDDB6D",
"9. c #EEDD6D",
"0. c #EDDC6F",
"q. c #EEDC6F",
"w. c #EFDE6F",
"e. c #F0DF6F",
"r. c #E1CF70",
"t. c #E1D071",
"y. c #E3D476",
"u. c #E7D977",
"i. c #EBDB72",
"p. c #EDDE73",
"a. c #E3D678",
"s. c #E4D67A",
"d. c #E5D878",
"f. c #ECDF7A",
"g. c #E8DD7E",
"h. c #F0DF70",
"j. c #EEE075",
"k. c #EFE177",
"l. c #EFE178",
"z. c #EFE37B",
"x. c #F0E072",
"c. c #F0E275",
"v. c #F1E376",
"b. c #F2E477",
"n. c #F0E378",
"m. c #F2E57B",
"M. c #F0E57D",
"N. c #F1E67C",
"B. c #F2E67D",
"V. c #F1E67F",
"C. c #F2E77F",
"Z. c #F3E87E",
"A. c #EBE181",
"S. c #EBE082",
"D. c #ECE180",
"F. c #EAE184",
"G. c #ECE485",
"H. c #ECE486",
"J. c #EDE687",
"K. c #EFE98A",
"L. c #EFE98D",
"P. c #F1E781",
"I. c #F1E782",
"U. c #F3E980",
"Y. c #F2E983",
"T. c #F4EA82",
"R. c #F3EB84",
"E. c #F3EB85",
"W. c #F4EC84",
"Q. c #F1EA88",
"!. c #F2EB88",
"~. c #F3ED89",
"^. c #F3ED8B",
"/. c #F5EE88",
"(. c #F1EC8D",
"). c #F3EE8C",
"_. c #F1ED8F",
"`. c #F4EF8C",
"'. c #F6F08B",
"]. c #F5F08D",
"[. c #F5F08F",
"{. c #F7F38F",
"}. c #F1EE92",
"|. c #F4F090",
" X c #F4F091",
".X c #F5F192",
"XX c #F5F292",
"oX c #F7F493",
"OX c #F3F195",
"+X c #F5F394",
"@X c #F4F396",
"#X c #F6F494",
"$X c #F6F596",
"%X c #F8F797",
"&X c #F6F698",
"*X c #F7F799",
"=X c #F5F59A",
"-X c #F7F79A",
";X c #F7F89A",
":X c #F7F89B",
">X c #F7F89C",
",X c #F7F99D",
"<X c #F9F99A",
"1X c #F8FA9E",
"2X c #F8FB9F",
/* pixels */
"                                                E.[.<X<X<X<X<X                                      ",
"                                        ,.6.h.n.Z.W.'.oX%XXXXXXX}.$X                                ",
"                                       .X.,.6.h.b.Z.T.'.{.%X%X(.(.(.(.G.                            ",
"                                    _ [ | X.:.6.h.b.Z.W./.[.%X%XXXXXXXXXXX                          ",
"                                U E ^ _ { |  .:.6.w.b.Z.W./.{.%X#XH C S C C                         ",
"                                U E W ~ _ , . . . . O b.Z.W.'.oX<X%X(.(.(.(.                        ",
"                              8 r t U b O + O ) 6.p.m.@.$ m.W.'.oX%XG.S S S S                       ",
"                              5 9 r > # # _ [  .:.6.x.m.U./.i.W.'.oX#XK.K.K.L.!.                    ",
"                            2 4 5 < # * W ^ _ [ | :.1.x.b.Z./.m.T./.{.%Xt.t.r.t.                    ",
"                          5 4 2 : = * r P W W ^ { | X.e.e.b.T./.Z.T./.{.G.G.H.H.G.                  ",
"                          r 8 4 = = 4 5 t P W W ( {  .:.,.e.b.Z.W.Z.W.W.{.F.F.F.F.                  ",
"                          r 8 > = - 2 5 r t u W ^ _ {  .:.6.x.m.E.b.Z.W.'.A.A.S.A.A.                ",
"                        U u w ; ; 5 4 2 5 0 r u W ^ _ {  .:.e.e.m.Z.b.V.W.A.g.g.g.g.                ",
"                        W T 1 p t q 5 4 2 4 0 r u W ^ _ { | :.,.x.b.e.b.Z.T.H H H H                 ",
"                        ^ W p p I t 0 5 4 2 4 0 r P W ^ ( { | :.6.e.b.e.b.Z.d.d.d.d.d.              ",
"                        _ ^ s n R U t q 5 4 2 4 0 r P W W ( [ | X.<.w.6.e.b.N N N N N               ",
"                      [ _ ~ f ^ W R U t 9 6 2 2 6 0 t U W / ` {  .:.e.:.e.h.s.y.y.y.y.              ",
"                      | | x j _ / W R I r 9 6 4 2 6 q t I E / ` [ |  .:.<.6.=.l k k l               ",
"                      X.| k k { ] ^ W R I r 0 6 2 2 5 q r I E / ` [ | :. .:.6.r.r.r.r.              ",
"                      ,.X.l D  .{ [ ` W R I t 0 5 4 2 5 0 r I E / ` [  . .:.<.&.&.&.&.              ",
"                    w.6.,.M -.:. .} ] ^ / R U t q 5 4 2 4 9 r t E W ` [ [ | | O.O.O.O.O.            ",
"                    b.p.6.N p.6.;.;.} ] ` W E U t 0 5 2 2 4 0 t U R W ` _ [ | %.#.#.#.#.            ",
"                    b.k.6.B j.w.<.:. .} ` ^ / E I r 9 6 2 2 6 0 t U W ^ ^ _ } L O.J J O.            ",
"                    V.n.k.C m.b.8.6.:. .{ ` ^ / R I r 0 5 4 2 6 0 r U W W ^ ~ =.O.O.O.O.            ",
"                    E.U.l.S E.V.b.w.6.:. .} ] ` W R U r 0 5 2 2 4 5 u u W W ^ v s s s s             ",
"                    `.~.P.G `.E.V.l.w.,.;.| } ` ` W R U t 0 5 4 2 4 5 u u U W ) H J H J             ",
"                    XX[.~.J #X~.U.P.k.w.2.:.:.} [ ` W R I t q 6 4 2 6 5 r u U V N N N N             ",
"                    *XXX`.J *XXX/.E.V.b.w.,.:.| [ ` / W R I t 0 4 4 2 4 0 r u D G G G F             ",
"                    >X*XXXo.OX;XXX`.E.V.b.6.6.:. .{ ` / W R I t 9 5 4 2 5 8 w x x x x l             ",
"                      2X;X#.s.>X*X#X/.E.m.b.w.6.<. .{ ` ` W R I t q 6 4 4 9 8 S S C S               ",
"                      *X>X&.%.*X2X>X#X`.E.V.n.w.6.;. .[ [ ^ W R u t 0 5 4 2 5 B B B B               ",
"                      XX*Xs.*.|.*X>X>X#X`.E.V.b.p.2.<. .{ [ ` W E U t 0 4 2 < p p p p               ",
"                      `.XX#Xr.!.|.#X>X>X#X[.!.Z.k.e.4.:.X.| _ ( ! W U 8 9 4 x M M M M               ",
"                        `.*Xy.A.(.|.*X2X;X|.'.!.N.k.w.,.;.X.| _ ^ ! E r q 5 s p p s f               ",
"                        /.}.s.s.U.!.(.*X>X;XoX(.W.m.k.6.,.;.X.{ _ ^ ! u w q l l l l l               ",
"                        P./.J.g.l.P.~.[.;X2X;X#X].W.N.k.j.,.:. .| [ W T u w & & & &                 ",
"                        M.I.~.F.F.l.V.~.|.*X>X;X+X].W.z.k.e.4.;. .| ^ ! T h j j j j                 ",
"                          n.I.J.G.A.l.V.~.|.#X>X;X+X].!.Z.k.j.6.:.[ _ ^ W s f f f f                 ",
"                          l.V.E.J.J.p.z.G./.[.*X2X;X|.'.!.N.k.6.:.{ _ ( W f p f s                   ",
"                          8.l.z.K.L.L.p.l.U.!.}.#X2X;X|.].W.N.c.X.| | _ p p i i p                   ",
"                            p.k.z.!.}.(.p.z.V.E.}.*X2X-X#X`.E.6.:.:.| [ ; ; ; ;                     ",
"                              8.k.z.~.@X@Xp.b.G.E.XX#X2X;XXXV.6.6.:.:.; ; ; ; ;                     ",
"                              6.i.k.l.E.*X*X*XU.P.E.`.*X*XE.m.b.8.6.Z O O O O                       ",
"                                3.8.k.l.G.oX>X>X2X2X2XXX}.!.T.m.x.p.= = = *                         ",
"                                2.2.8.k.z.U.~.XX$X>X>X*XXX/.E.P.m.@ . . . .                         ",
"                                    3.p.l.V.P.~.`.*X>X>X-XXX`.E.$ $ $ $ &                           ",
"                                      6.p.k.l.I.~.XX*X>X2X-XXX+ @ + @ O                             ",
"                                        2.8.k.l.P./.}.#X-Xg @ + @ +                                 ",
"                                                l.z.f O . . O                                       ",
"                                                                                                    "
};
