/* XPM */
static char *New_Project1674181073[] = {
/* columns rows colors chars-per-pixel */
"50 50 41 1 ",
"  c None",
". c #B88729",
"X c #BA8B2D",
"o c #BA8C2D",
"O c #BC9031",
"+ c #BD9131",
"@ c #BD9132",
"# c #BF9335",
"$ c #C09638",
"% c #C19839",
"& c #C39B3C",
"* c #C49D3F",
"= c #C6A143",
"- c #C7A243",
"; c #C8A445",
": c #C9A648",
"> c #CAA648",
", c #CAA748",
"< c #CDAC4E",
"1 c #D0B153",
"2 c #D1B455",
"3 c #D2B556",
"4 c #D2B557",
"5 c #D2B658",
"6 c #D3B759",
"7 c #D8C061",
"8 c #D9C162",
"9 c #DBC567",
"0 c #DDC869",
"q c #DDC96A",
"w c #DECA6B",
"e c #E2D072",
"r c #E4D576",
"t c #E4D677",
"y c #E5D778",
"u c #E8DB7C",
"i c #E8DC7D",
"p c #E9DD7E",
"a c #EFE98A",
"s c #F5F393",
"d c #F5F394",
/* pixels */
"                                                  ",
"                      tppppip                     ",
"                      ssdsssd                     ",
"                      tttttrt                     ",
"                      ssssdss                     ",
"                      ttrtttt                     ",
"                      aaaaaaa                     ",
"                      tyyyyyy                     ",
"                      iiiuuuu                     ",
"                      iiiiiii                     ",
"                      eeeeeee                     ",
"                      iiiiiip                     ",
"                      0000000                     ",
"                      piiiipi                     ",
"                      0000000                     ",
"                      yyyyyyy                     ",
"                      8777877                     ",
"                      9999999                     ",
"                      ww0www0                     ",
"                      8888888                     ",
"                      0www00w                     ",
"                      4444446                     ",
"                      0000000                     ",
"                      4444244                     ",
"                      7777777                     ",
"                      4424444                     ",
"                      4443544                     ",
"                      6633555                     ",
"                      <<<<<<<                     ",
"                      6666555                     ",
"                      ::,,;,,                     ",
"                      2111112                     ",
"                      >>,,,,:                     ",
"                      <<<<<<<                     ",
"                      ;;;;;;;                     ",
"                      -------                     ",
"                      -------                     ",
"                      &&&*&&&                     ",
"                      ----=-=                     ",
"                      %$$%$%%                     ",
"                      %&*****                     ",
"                      $$####$                     ",
"                      $$$$$$$                     ",
"                      $$#####                     ",
"                      O#OOOOO                     ",
"                      OOOOOOO                     ",
"                      oXXXooX                     ",
"                      oXXXXoX                     ",
"                      .......                     ",
"                                                  "
};
