/* XPM */
static char *New_Project__4_1674181072[] = {
/* columns rows colors chars-per-pixel */
"50 50 195 2 ",
"   c None",
".  c #B78426",
"X  c #B8892A",
"o  c #BA8B2D",
"O  c #BB8D2F",
"+  c #BB8E30",
"@  c #BC8E30",
"#  c #BC9031",
"$  c #BD9132",
"%  c #BE9234",
"&  c #BE9335",
"*  c #C09537",
"=  c #C09738",
"-  c #C79F39",
";  c #C39A3C",
":  c #C39B3C",
">  c #C69F3E",
",  c #D5AB35",
"<  c #D1AA3D",
"1  c #DBB236",
"2  c #E1B52B",
"3  c #E2B62C",
"4  c #E2B72D",
"5  c #E2B830",
"6  c #E3B931",
"7  c #E3BA33",
"8  c #E3BA34",
"9  c #E3BD3A",
"0  c #E4BD38",
"q  c #E4BE3A",
"w  c #E4BE3B",
"e  c #E4BF3B",
"r  c #E5C03C",
"t  c #E5C13D",
"y  c #E5C13E",
"u  c #E6C13F",
"i  c #C59E40",
"p  c #C6A042",
"a  c #C7A344",
"s  c #C8A445",
"d  c #C9A547",
"f  c #CEAA43",
"g  c #CFAB45",
"h  c #CAA748",
"j  c #CAA749",
"k  c #CAA849",
"l  c #CCAB4C",
"z  c #CDAC4E",
"x  c #CDAD4F",
"c  c #D0AD49",
"v  c #D0AF4B",
"b  c #D6B140",
"n  c #DBB741",
"m  c #D8B442",
"M  c #DFBB40",
"N  c #D2B048",
"B  c #D8B74C",
"V  c #CFB152",
"C  c #D3B450",
"Z  c #D0B354",
"A  c #D1B354",
"S  c #D1B456",
"D  c #D2B456",
"F  c #D2B557",
"G  c #D2B759",
"H  c #D3B95A",
"J  c #D3B95B",
"K  c #D4B859",
"L  c #D4B95A",
"P  c #D5BC5F",
"I  c #D7BE5F",
"U  c #E0BE44",
"Y  c #D7BF61",
"T  c #E6C342",
"R  c #E3C145",
"E  c #E6C444",
"W  c #E6C545",
"Q  c #E7C646",
"!  c #E7C647",
"~  c #E4C64E",
"^  c #E8C84B",
"/  c #E8CA4D",
"(  c #E0C250",
")  c #E9CB50",
"_  c #E9CC52",
"`  c #E9CE53",
"'  c #EACF56",
"]  c #E7CC58",
"[  c #E8CC58",
"{  c #E8CD59",
"}  c #EACF5B",
"|  c #EAD057",
" . c #EBD159",
".. c #ECD35B",
"X. c #EBD25C",
"o. c #EBD45E",
"O. c #EBD45F",
"+. c #ECD55F",
"@. c #D8C063",
"#. c #DAC466",
"$. c #DBC567",
"%. c #DBC667",
"&. c #DCC768",
"*. c #DDC86A",
"=. c #DECA6C",
"-. c #DECB6C",
";. c #DFCC6F",
":. c #E2CB61",
">. c #E9D160",
",. c #EAD360",
"<. c #ECD561",
"1. c #ECD662",
"2. c #EAD465",
"3. c #EBD667",
"4. c #ECD764",
"5. c #EDD966",
"6. c #E5D26D",
"7. c #EEDB69",
"8. c #EDDB6A",
"9. c #EBD96C",
"0. c #EAD86D",
"q. c #EDDB6E",
"w. c #EFDD6D",
"e. c #EFDE6F",
"r. c #E0CF71",
"t. c #E1D071",
"y. c #E3D375",
"u. c #E3D477",
"i. c #E7D977",
"p. c #EDDD72",
"a. c #EEDF75",
"s. c #E3D579",
"d. c #E5D678",
"f. c #E7DA7B",
"g. c #E8DB7D",
"h. c #E8DD7E",
"j. c #EFE072",
"k. c #EFE176",
"l. c #EEE17A",
"z. c #EFE37D",
"x. c #EFE37F",
"c. c #F0E174",
"v. c #F1E478",
"b. c #F1E57A",
"n. c #F1E67D",
"m. c #F3E77D",
"M. c #F0E47E",
"N. c #F3E77E",
"B. c #E7DC81",
"V. c #EADF80",
"C. c #EADF81",
"Z. c #E9E083",
"A. c #EDE383",
"S. c #EAE286",
"D. c #ECE485",
"F. c #EDE486",
"G. c #EDE78B",
"H. c #EFE889",
"J. c #EFE98A",
"K. c #F3E880",
"L. c #F2E882",
"P. c #F2E984",
"I. c #F2EA86",
"U. c #F3EC87",
"Y. c #F4EC85",
"T. c #F4ED85",
"R. c #F2EB88",
"E. c #F4ED89",
"W. c #F5EF88",
"Q. c #F3EE8C",
"!. c #F2ED8E",
"~. c #F4F08E",
"^. c #F5F18E",
"/. c #F6F28E",
"(. c #F0EB90",
"). c #F1ED91",
"_. c #F2EF90",
"`. c #F4F190",
"'. c #F4F291",
"]. c #F6F290",
"[. c #F7F390",
"{. c #F7F593",
"}. c #F2F195",
"|. c #F5F495",
" X c #F6F495",
".X c #F6F596",
"XX c #F6F597",
"oX c #F8F797",
"OX c #F4F499",
"+X c #F7F798",
"@X c #F7F99D",
"#X c #F8F899",
"$X c #F9F99A",
"%X c #F8F99C",
"&X c #F8FA9F",
/* pixels */
"                                        #X$X$X$X$X/./.                                              ",
"                                      F.F.F.F.F.T./.$X#X/.                                          ",
"                                    .X.X.X.X[.T.[.$X[./.T.                                          ",
"                                  F.f.f.f.f.i.^.#X#X/.W.K.v.                                        ",
"                                  '.`.`.`.}.^.#XoX/.T.K.v.e.                                        ",
"                                _._._.`.`.[.#X#X/.X X X e.5.+.                                      ",
"                                %.&.%.&.%.@X#X/.$X/.O o o +. .                                      ",
"                              H.H.H.H.H.`.[./.#X/.T.m.v o - ` /                                     ",
"                              &.&.&.&.&.oX/.W.[.^.m.c.w.# # / /                                     ",
"                              F.F.F.F.F./.T.T.^.m.c.7.4.f & U W                                     ",
"                              K K K K K T.m.T.m.c.7.<...| * * u q                                   ",
"                            C.C.C.C.C.F.m.v.N.c.5.<. .| / = * 0 8                                   ",
"                            h.h.h.h.h.N.c.N.c.7.+. .| / W < > 6 4                                   ",
"                            g.g.g.g.h.c.w.c.w.5. .| / W T q : , 3                                   ",
"                            d.d.d.d.d.e.5.7.4. . ./ W E q 6 > > 5                                   ",
"                            t.t.t.t.t.5.+.<... ./ W u q 8 4 p p 6                                   ",
"                            y.y.y.y.y.+... .| / W u 0 7 3 5 a a 0 r                                 ",
"                            d d d d d  . .` / W u q 5 3 3 7 < d m u                                 ",
"                            r.r.r.r.r.' | / W E 0 7 3 3 7 0 M l N W                                 ",
"                          h h h h h v ) / W E 0 7 4 5 5 0 u R l x /                                 ",
"                          =.=.=.=.=.:.^ W u 0 7 4 4 7 0 u E ^ x x /                                 ",
"                          K J J J J ( W u 0 7 3 4 7 q u E ^ ` V V |                                 ",
"                          %.&.&.%.%.~ u 0 5 3 3 7 q E W ^ ` | V A  .                                ",
"                          D D S S S U q 7 3 3 7 0 u W W / | ..S S +.                                ",
"                          @.Y @.@.@.R 8 3 5 5 0 u T ^ _ ' X.1.G G 2.                                ",
"                          I I Y I P M 5 3 6 0 u W ^ _ '  .1.8.J J 7.                                ",
"                          k k h k k 1 5 6 r u E ^ _ ' X.1.8.k.P J k.                                ",
"                          K J J J K 1 5 q E E ~ )  .o.1.8.j.N.Y Y N.                                ",
"                          p p p p p < 8 T W / `  .o.4.7.k.N.T.Y @.K.                                ",
"                          S S S G S B q W ^ / '  .1.8.e.v.P.!.&.%.K.                                ",
"                          : : : : : > u ^ _ | X.1.8.k.v.P.~.!.&.r./.                                ",
"                            V V V V V E _  . .1.8.k.N.P.~.OXF.;.f..X                                ",
"                            x x x x z ^ ) X.1.7.k.x.T.~.#X&Xd.r.).@X                                ",
"                            h d h h h / ` 2.e.c.N.T.`..X&X}.s.u.@X                                  ",
"                            h h h h h ) | 7.e.v.P.~..X@X#X`.s.s.@X                                  ",
"                            a s a a a '  .c.v.P.~..X&XOX`.P.f.Z..X                                  ",
"                            d a d a d } X.N.K./.OX&XOX`.T.x.B._.R.                                  ",
"                            + # # # + g 7.K._.OX&X.XR.P.x.S.F.R.R.                                  ",
"                              i i i i p e.j..X&X.X!.K.x.p.F.G.K.A.                                  ",
"                              @ @ @ @ + j.v.@XoX/.T.x.k.8.H.J.A.c.                                  ",
"                              : > : : : v.P.R.'.P.N.p.9.(._.x.p.                                    ",
"                              % % % % % 6.R.'.P.x.p.3.2.}.}.p.q.                                    ",
"                                = * * * = '..X&Xp.3.l.}.OXa.q.                                      ",
"                                & & % * % #X&X$XOX@X@X@XA.q.2.                                      ",
"                                # # % # # G.@X.X~..X@XR.q.3.>.                                      ",
"                                  @ @ @ @ O |.'.P.x.p.e.3.}                                         ",
"                                    X X X X X P.N.k.p.2.>.}                                         ",
"                                    X X X X X A p.9.2.>.]                                           ",
"                                        . . . . * 2.} }                                             ",
"                                                                                                    "
};
