/* XPM */
static char *coin81674391952[] = {
/* columns rows colors chars-per-pixel */
"50 50 195 2 ",
"   c None",
".  c #B78426",
"X  c #B8892A",
"o  c #BA8B2D",
"O  c #BB8D2F",
"+  c #BB8E30",
"@  c #BC8E30",
"#  c #BC9031",
"$  c #BD9132",
"%  c #BE9234",
"&  c #BE9335",
"*  c #C09537",
"=  c #C09738",
"-  c #C79F39",
";  c #C39A3C",
":  c #C39B3C",
">  c #C69F3E",
",  c #D5AB35",
"<  c #D1AA3D",
"1  c #DBB236",
"2  c #E1B52B",
"3  c #E2B62C",
"4  c #E2B72D",
"5  c #E2B830",
"6  c #E3B931",
"7  c #E3BA33",
"8  c #E3BA34",
"9  c #E3BD3A",
"0  c #E4BD38",
"q  c #E4BE3A",
"w  c #E4BE3B",
"e  c #E4BF3B",
"r  c #E5C03C",
"t  c #E5C13D",
"y  c #E5C13E",
"u  c #E6C13F",
"i  c #C59E40",
"p  c #C6A042",
"a  c #C7A344",
"s  c #C8A445",
"d  c #C9A547",
"f  c #CEAA43",
"g  c #CFAB45",
"h  c #CAA748",
"j  c #CAA749",
"k  c #CAA849",
"l  c #CCAB4C",
"z  c #CDAC4E",
"x  c #CDAD4F",
"c  c #D0AD49",
"v  c #D0AF4B",
"b  c #D6B140",
"n  c #DBB741",
"m  c #D8B442",
"M  c #DFBB40",
"N  c #D2B048",
"B  c #D8B74C",
"V  c #CFB152",
"C  c #D3B450",
"Z  c #D0B354",
"A  c #D1B354",
"S  c #D1B456",
"D  c #D2B456",
"F  c #D2B557",
"G  c #D2B759",
"H  c #D3B95A",
"J  c #D3B95B",
"K  c #D4B859",
"L  c #D4B95A",
"P  c #D5BC5F",
"I  c #D7BE5F",
"U  c #E0BE44",
"Y  c #D7BF61",
"T  c #E6C342",
"R  c #E3C145",
"E  c #E6C444",
"W  c #E6C545",
"Q  c #E7C646",
"!  c #E7C647",
"~  c #E4C64E",
"^  c #E8C84B",
"/  c #E8CA4D",
"(  c #E0C250",
")  c #E9CB50",
"_  c #E9CC52",
"`  c #E9CE53",
"'  c #EACF56",
"]  c #E7CC58",
"[  c #E8CC58",
"{  c #E8CD59",
"}  c #EACF5B",
"|  c #EAD057",
" . c #EBD159",
".. c #ECD35B",
"X. c #EBD25C",
"o. c #EBD45E",
"O. c #EBD45F",
"+. c #ECD55F",
"@. c #D8C063",
"#. c #DAC466",
"$. c #DBC567",
"%. c #DBC667",
"&. c #DCC768",
"*. c #DDC86A",
"=. c #DECA6C",
"-. c #DECB6C",
";. c #DFCC6F",
":. c #E2CB61",
">. c #E9D160",
",. c #EAD360",
"<. c #ECD561",
"1. c #ECD662",
"2. c #EAD465",
"3. c #EBD667",
"4. c #ECD764",
"5. c #EDD966",
"6. c #E5D26D",
"7. c #EEDB69",
"8. c #EDDB6A",
"9. c #EBD96C",
"0. c #EAD86D",
"q. c #EDDB6E",
"w. c #EFDD6D",
"e. c #EFDE6F",
"r. c #E0CF71",
"t. c #E1D071",
"y. c #E3D375",
"u. c #E3D477",
"i. c #E7D977",
"p. c #EDDD72",
"a. c #EEDF75",
"s. c #E3D579",
"d. c #E5D678",
"f. c #E7DA7B",
"g. c #E8DB7D",
"h. c #E8DD7E",
"j. c #EFE072",
"k. c #EFE176",
"l. c #EEE17A",
"z. c #EFE37D",
"x. c #EFE37F",
"c. c #F0E174",
"v. c #F1E478",
"b. c #F1E57A",
"n. c #F1E67D",
"m. c #F3E77D",
"M. c #F0E47E",
"N. c #F3E77E",
"B. c #E7DC81",
"V. c #EADF80",
"C. c #EADF81",
"Z. c #E9E083",
"A. c #EDE383",
"S. c #EAE286",
"D. c #ECE485",
"F. c #EDE486",
"G. c #EDE78B",
"H. c #EFE889",
"J. c #EFE98A",
"K. c #F3E880",
"L. c #F2E882",
"P. c #F2E984",
"I. c #F2EA86",
"U. c #F3EC87",
"Y. c #F4EC85",
"T. c #F4ED85",
"R. c #F2EB88",
"E. c #F4ED89",
"W. c #F5EF88",
"Q. c #F3EE8C",
"!. c #F2ED8E",
"~. c #F4F08E",
"^. c #F5F18E",
"/. c #F6F28E",
"(. c #F0EB90",
"). c #F1ED91",
"_. c #F2EF90",
"`. c #F4F190",
"'. c #F4F291",
"]. c #F6F290",
"[. c #F7F390",
"{. c #F7F593",
"}. c #F2F195",
"|. c #F5F495",
" X c #F6F495",
".X c #F6F596",
"XX c #F6F597",
"oX c #F8F797",
"OX c #F4F499",
"+X c #F7F798",
"@X c #F7F99D",
"#X c #F8F899",
"$X c #F9F99A",
"%X c #F8F99C",
"&X c #F8FA9F",
/* pixels */
"                                              ]./.$X$X$X$X$X                                        ",
"                                          /.oX$X].T.F.F.F.F.F.                                      ",
"                                          T./.{.$X].T..X.X.X.X.X                                    ",
"                                        v.K.W./.oXoX/.i.f.f.f.f.F.                                  ",
"                                        e.v.K.T./.oXoX/.].`.`.`.`.                                  ",
"                                      +.5.e.X X X /.oXoX].`.).`.).`.                                ",
"                                       .+.o o O /.$X/.oX@X%.%.%.$.$.                                ",
"                                    / ` - O c m.T./.+X/.{.`.J.J.J.J.R.                              ",
"                                    / / # # e.c.N.~.{.~.~.oX&.&.$.*.$.                              ",
"                                    ! U % f 1.7.c.m.T.T.T./.F.A.F.F.F.                              ",
"                                  q y * * ' ..1.7.c.N.W.m.T.K K K K L                               ",
"                                  8 q = * / '  .+.7.c.N.v.m.A.x.C.C.C.C.                            ",
"                                  4 7 = b ! / `  .1.7.j.m.j.m.h.h.h.h.h.                            ",
"                                  2 , : 9 T ! / ' ..1.e.k.e.l.g.g.g.g.g.                            ",
"                                  4 > p 7 q T ! / '  .5.7.5.e.i.d.d.d.d.                            ",
"                                  7 p p 3 7 q y ! / | ..<.O.5.t.t.t.t.t.                            ",
"                                y 0 s s 4 2 7 0 y ! / |  ...+.y.y.y.y.u.                            ",
"                                y m k < 7 2 4 7 0 y ! / `  ...s s j j d                             ",
"                                ! N k M 0 7 2 2 7 q T ! / | ' t.t.r.r.r.                            ",
"                                / z l R y 0 7 4 2 7 q T ! / / c s j j j j                           ",
"                                / x x ^ ! y 9 7 4 3 7 q y ! / ] -.-.-.-.-.                          ",
"                                ' A V ) ^ ! y 9 8 4 3 7 q y R ( H H H J L                           ",
"                                ' D V  .) ^ ! T q 8 2 2 7 q T ~ $.&.$.#.$.                          ",
"                                O.D S X.' ^ ^ T y q 7 2 2 8 e M S S S D D                           ",
"                                <.H H 4.X.| ^ ^ T y 0 7 3 3 7 R @.@.@.@.@.                          ",
"                                8.H H 7.<.X. ._ ^ ! y 0 7 4 3 U I Y I I I                           ",
"                                j.Y P j.8.<.X. .) ^ T y q 8 2 1 j j j j j                           ",
"                                l.Y @.z.k.8.<.O.| ` ^ R T y 8 1 J J J J L                           ",
"                                K.@.@.R.m.a.7.<.O.' ) ^ ! T 8 < p p p i a                           ",
"                                T.#.#.~.I.v.e.8.1...} / / T q B S S G S D                           ",
"                                ~.;.%.`./.I.v.j.7.1...' ) ^ y : : : : : :                           ",
"                                .Xg.;.F.+X!.I.m.k.7.1.O.| ` T A V V V A                             ",
"                                %X).r.d.%X+X/.R.m.k.7.<.O.` ! z z z z z                             ",
"                                  &Xs.u..X&X.X).I.m.k.8.<.' ^ j j j k s                             ",
"                                  @Xs.s.`.+X@X+X~.I.v.a.7.' ) j j j k k                             ",
"                                  |.C.f.I.`.+X&X.X~.K.v.c. .' a a a a a                             ",
"                                  Q.!.B.z.I.`..X@X+X~.I.m.X.} s s s s s                             ",
"                                  I.W.S.S.z.I.R..X&X.X~.K.5.g # # # # +                             ",
"                                  A.L.J.J.p.x.L.!..X@X+Xk.e.p i i i i                               ",
"                                  k.x.J.J.0.a.l.I.`.+X@Xv.j.+ + @ @ @                               ",
"                                    a.m.(.(.0.a.x.I.`.W.I.v.: : : : :                               ",
"                                    0.a.}.}.2.2.a.x.I.Q.W.6.% % & % %                               ",
"                                      q.a.+XOXx.2.a.&X+X].& = * = *                                 ",
"                                      2.0.z.@X@X+X|.%X&X+X% & * % %                                 ",
"                                      >.3.q.R.&X|./.|.@XG.# # # # #                                 ",
"                                        >.3.q.a.x.I.!.|.@ @ @ @ #                                   ",
"                                        ] >.3.q.a.x.I.X X X X X                                     ",
"                                          ] X.2.q.k.C X X X X X                                     ",
"                                            } } 2.* . . . .                                         ",
"                                                                                                    "
};
