/* XPM */
static char *New_Project__2_1674181072[] = {
/* columns rows colors chars-per-pixel */
"50 50 234 2 ",
"   c None",
".  c #B8882A",
"X  c #B9892B",
"o  c #B98A2B",
"O  c #BA8B2D",
"+  c #BA8C2E",
"@  c #BB8D2F",
"#  c #BD8F31",
"$  c #BE9231",
"%  c #BD9032",
"&  c #BE9234",
"*  c #BF9334",
"=  c #BF9335",
"-  c #C29530",
";  c #C19535",
":  c #C29735",
">  c #C69930",
",  c #C89D35",
"<  c #C09638",
"1  c #C19739",
"2  c #C2993B",
"3  c #C29A3B",
"4  c #C39C3D",
"5  c #C39C3E",
"6  c #C49D3F",
"7  c #C69F3F",
"8  c #CEA333",
"9  c #CDA438",
"0  c #D2A732",
"q  c #D5AE3C",
"w  c #DEB533",
"e  c #DDB73C",
"r  c #E1B52A",
"t  c #E1B52B",
"y  c #E2B62C",
"u  c #E2B72F",
"i  c #E2B830",
"p  c #E3B931",
"a  c #E3BA33",
"s  c #E3BB34",
"d  c #E3BB35",
"f  c #E4BC36",
"g  c #E2BC3B",
"h  c #E4BD38",
"j  c #E4BE3A",
"k  c #E5BF3B",
"l  c #E2BD3F",
"z  c #E5C03D",
"x  c #E5C13F",
"c  c #C6A043",
"v  c #C7A143",
"b  c #C9A241",
"n  c #CBA540",
"m  c #CBA642",
"M  c #C8A344",
"N  c #C9A547",
"B  c #CAA84A",
"V  c #CBA94B",
"C  c #CEAD4D",
"Z  c #CDAC4E",
"A  c #CDAD4F",
"S  c #D0AB41",
"D  c #DDBB46",
"F  c #DFBC45",
"G  c #D7B74C",
"H  c #CFAF50",
"J  c #CFB051",
"K  c #CFB152",
"L  c #D3B451",
"P  c #D6B751",
"I  c #D0B254",
"U  c #D0B355",
"Y  c #D2B557",
"T  c #D6B955",
"R  c #DCBE50",
"E  c #D3B758",
"W  c #D3B759",
"Q  c #D4B95B",
"!  c #D6BD5E",
"~  c #DBBF59",
"^  c #D7BF60",
"/  c #DFC457",
"(  c #E6C240",
")  c #E6C342",
"_  c #E6C443",
"`  c #E5C344",
"'  c #E6C545",
"]  c #E7C546",
"[  c #E7C648",
"{  c #E7C748",
"}  c #E7C749",
"|  c #E0C04C",
" . c #E4C64E",
".. c #E8C84A",
"X. c #E8C84B",
"o. c #E8C94C",
"O. c #E8CA4E",
"+. c #E3C551",
"@. c #E3C755",
"#. c #E9CB50",
"$. c #E9CC51",
"%. c #E9CD52",
"&. c #EACE53",
"*. c #EACF55",
"=. c #EACF57",
"-. c #E1C75A",
";. c #E4CB5B",
":. c #E7CF5F",
">. c #EBD057",
",. c #EAD159",
"<. c #EAD15A",
"1. c #EBD15A",
"2. c #EBD25A",
"3. c #EBD25C",
"4. c #ECD35D",
"5. c #EBD45E",
"6. c #D9C364",
"7. c #DAC466",
"8. c #DEC864",
"9. c #DBC668",
"0. c #DECA6A",
"q. c #DFCB6B",
"w. c #DECC6E",
"e. c #DFCD6F",
"r. c #E1CA62",
"t. c #E4CD62",
"y. c #E6D167",
"u. c #ECD560",
"i. c #EDD660",
"p. c #EDD661",
"a. c #ECD663",
"s. c #ECD764",
"d. c #EDD865",
"f. c #EDD966",
"g. c #E8D56A",
"h. c #EDDA69",
"j. c #EEDB69",
"k. c #ECD86A",
"l. c #ECD96B",
"z. c #EDDA6A",
"x. c #EFDC6A",
"c. c #ECDB6F",
"v. c #EEDD6D",
"b. c #EFDE6D",
"n. c #EFDD6E",
"m. c #E0CF71",
"M. c #E1D071",
"N. c #E2D274",
"B. c #E2D375",
"V. c #ECDC70",
"C. c #EDDD71",
"Z. c #EFDF70",
"A. c #EDDD73",
"S. c #EEDF74",
"D. c #EEDF76",
"F. c #E5D678",
"G. c #E6D87A",
"H. c #E7DB7D",
"J. c #E9DB79",
"K. c #EADB78",
"L. c #E9DD7E",
"P. c #EFE279",
"I. c #EFE27A",
"U. c #EEE27B",
"Y. c #EFE37B",
"T. c #ECE17F",
"R. c #F0E172",
"E. c #F0E174",
"W. c #F0E175",
"Q. c #F1E274",
"!. c #F1E375",
"~. c #F0E277",
"^. c #F0E37B",
"/. c #F0E479",
"(. c #F2E579",
"). c #F1E57B",
"_. c #F2E67B",
"`. c #F0E47D",
"'. c #F1E67D",
"]. c #F1E67F",
"[. c #F2E77E",
"{. c #E8DE80",
"}. c #EAE082",
"|. c #ECE282",
" X c #ECE283",
".X c #EAE185",
"XX c #EEE584",
"oX c #EFE785",
"OX c #EDE586",
"+X c #EDE688",
"@X c #EEE98D",
"#X c #F1E782",
"$X c #F3E980",
"%X c #F2E982",
"&X c #F4EA82",
"*X c #F1E984",
"=X c #F1E885",
"-X c #F3EB84",
";X c #F2EA85",
":X c #F2EA87",
">X c #F3EC87",
",X c #F5ED86",
"<X c #F0E98B",
"1X c #F3EC88",
"2X c #F4ED89",
"3X c #F5EF88",
"4X c #F4ED8A",
"5X c #F4EE8B",
"6X c #F0EB8F",
"7X c #F1EC8D",
"8X c #F2EE8F",
"9X c #F4EF8D",
"0X c #F6F18C",
"qX c #F4F08F",
"wX c #F6F38F",
"eX c #F2EF91",
"rX c #F5F190",
"tX c #F4F191",
"yX c #F5F292",
"uX c #F5F393",
"iX c #F7F592",
"pX c #F4F397",
"aX c #F6F594",
"sX c #F6F495",
"dX c #F6F596",
"fX c #F6F597",
"gX c #F6F697",
"hX c #F8F796",
"jX c #F6F79A",
"kX c #F7F89B",
"lX c #F7F89C",
"zX c #F8F899",
"xX c #F8FA9E",
"cX c #F8FB9F",
/* pixels */
"                                                                                                    ",
"                                  E M.M.M.M.wX,X&X_.W.R.j.d.p.2.                                    ",
"                              jXfXfXfXfXiX0X,X$X_.!.Z.j.s.5.2.2.%.O...                              ",
"                          m.r.w.0.0.hXiX0X,X$X(.!.R.j.p.5.3.=.%.O...[ ]                             ",
"                        eXeXiXeXfXhXiX0X,X$X(.W.Z.j.p.4.3.>.&.O...] ] z j j                         ",
"                      ^ ^ ^ ^ ^ zXiX0X0X$X(.W.Z.x.G $ o o - F ..[ ` z z f i                         ",
"                    7X7X7X7X7XzXiX0X,X$X[.W.; o o b R R S ; o o o j j j a y t t                     ",
"                  <X<X<X<X9XzXiX0X,X[.(.P # W.R.b.d.5.3.>.%.O.[ , o + w y y y i f                   ",
"                G.F.G.G.G.hXiX0X,X[.P.$ (.(.R.j.d.i.3.>.O...{ ) z f 8 # > y i s f                   ",
"              oXoXoXOX+XhXiX0X,X$X!.Z &X(.R.j.s.5.4.>.%...{ ) z j s i y = ; s s j z                 ",
"              L.H.H.H.{.iX0X3X$X[.; &X'.W.b.d.p.5.>.%...} ] z z f i t t 0 = s s z )                 ",
"            |.}.{.OX{.iX0X,X-X_.v &X(.!.b.d.p.2.>.%.....) z j s y t t i i 9 = F z ) {               ",
"            Z Z H Z I 0X,X$X_.C.&X(.R.b.d.p.2.>.%...} ) z j s i t y i s j j 1 5 ] { o.O.            ",
"          K.H.H.H.H.0X,X$X(.W.r.(.R.j.d.p.2.>.O.O.{ ) z j s i t y i f f j ) ] 6 9  .#.*.            ",
"          w.w.w.m.K.-X$X(.!.r.(.R.x.d.p.2.*.%...{ ) z j i i t y i f j j ] ] o.o.6 #.*.=.2.          ",
"          F.F.F.F.-X-X_.!.Z.T !.Z.d.5.4.>.%.O.} ] z j f i y t i f j j ) ] { O.#.v G *.2.3.          ",
"        6.6.6.6.6.$X(.W.Z./ W.b.d.5.4.>.%.o.{ ) z j s i t t i s s z ) ] } O.%.=.@.v 2.5.a.          ",
"        B.M.B.B.B.(.!.R.z.g.b.d.i.4.>.%.o.{ ) z k s i t y i s j z ) ] } O.%.=.,.5.N 2.a.d.z.        ",
"        m.m.m.m.W.W.Z.z.s.z.d.p.2.>.O.o.{ ) k j s i t y i i j k ` ] } o.%.>.5.5.d.Z P d.z.b.        ",
"      K Y K Y K W.b.z.p.;.s.p.3.>.%...{ ) k j s i t y i s j z ` ] } %.%.2.2.4.s.z.y.Z j.R.W.        ",
"      e.w.w.w.w.Z.j.d.p./ p.5.>.O.o.} ] z z s i y y i s j z z ] } %.%.%.,.4.a.f.b.W.Z R.Z.P.        ",
"      K K K K K j.p.p.3.-.2.*.#...{ ) z j s i y y i s s z ) ] ..o.%.=.,.4.a.h.b.W.(.H W.P.&X        ",
"      9.9.9.9.9.p.5.3.>.2.*.%.X.{ ) z z s i t y i s j z ) ] } O.%.,.,.4.f.h.R.W.'.&XK '.'.-X        ",
"      B B B B B 4.4.>.%.*.#.O.{ ) z f s i y y i s j z ) ] ..O.%.*.5.4.s.h.c.!.Y.&X4XK #X>X4X        ",
"      6.6.6.6.6.3.*.%.O.%.[ { ) z j i i y y i s s z ) ] } O.%.>.5.4.s.h.b.Y.Y.&X4X0XE oX4XyX        ",
"      v v v v v >.%.%.......] z z s i t y i s s z ) ] } O.%.>.2.4.a.f.c.R.Y.%X>X8XfXE oXuXyX        ",
"      ! ! ! ! ! *.O...] ..) ) j s i t t i s j z z ] } o.%.*.2.4.a.h.b.R.(.&X4XqXiXkX^ 6XyXjX        ",
"      Q Q Q Q Q O...[ ] ) z j s i t y i s j z ) ] } O.>.*.,.4.a.h.Z.W.Y.&X4XuXuXlXlX/ fXzXxX        ",
"      U Y K K E [ [ ` z | j s i t y i s s z ] ] } o.%.=.5.5.a.f.b.!.'.&X3XyXfXlXxXfX! kXxXxX        ",
"      E Y Y U E { ) ) j | s i t y i s j z ` ] } O.%.=.5.a.a.h.C.Y.Y.&X4X0XfXlXlXjXyX6.cXzXpX        ",
"      K H H H H ` ) j s k i y t y s j z ( ' } o.%.*.2.4.s.f.b.W.Y.&X>XqXfXkXlXkXyXoX9.xXfXyX        ",
"        I U K K F j f s i t t i f j z z ' o.o.=.*.,.4.a.h.b.W.Y.&X>X0XfXlXlXfXyX4XM.G.fXpX3X        ",
"        = 1 1 = = j s y t g i s j z ( ] } O.%.=.,.5.a.h.b.!.Y.&X4XqXiXkXxXfXyX4XoXe.fX8X3X:X        ",
"        H H H H H s i t y +.s j z ( { } o.=.=.5.5.a.h.Z.Y.Y.-X4XqXfXkXcXpXuX:X&XP.B.0X>X:X          ",
"          v v v v y t y i i r.z ( ] o.o.%.=.5.4.s.h.Z.W.Y.&X4X0XfXlXcXfXuX:X=XY.F.|.4X#X'.          ",
"          V V V V q t y s s  .) ] o.O.O.=.,.5.a.f.b.W.Y.&X>XqXiXkXlXjXuX4X:X`.Y.G.8X:X'.Y.          ",
"          5 6 6 6 6 y s f j z u.} %.%.=.,.4.a.h.b.W.Y.&X4X8XfXkXcXfXyX4X:XY.S.{.{.:X#XP.            ",
"            M v M M m f j z ) { o.%.*.2.4.a.h.R.W.Y.&X:XqXiXkXlXfXuX8X:XY.W.{.OX:X'.P.S.            ",
"            v v c c c j j ) ) { }.*.5.4.s.h.R.W.'.&X4XuXfXlXcXfXqX>X&XY.S.}.+X:X'.^.S.              ",
"              = = = = ; ` ] {  .o.@Xa.s.h.Z.W.Y.&X4XqXfXkXlXfXuX>XoXY.S.Y.@X:X'.P.S.                ",
"              5 6 6 5 6 ` [ O.O.%.*.oXf.b.S.P.&X>XqXfXlXlXjXyX4X=X`.P.C.6X@X'.`.S.C.                ",
"                = = = = ; [ O.%.*.2.5.eXP.(.&X4X8XiXkXlXfXyX4X:X`.S.=X8XeX#XP.S.C.                  ",
"                  1 1 5 1 m %.*.2.5.a.s.#XpX4XyXiXkXlXjXyX4X:XY.eXpXpX:X'.P.S.c.g.                  ",
"                    o o o o o 2.2.a.f.h.Z.W.fXlXlXkXjXiXyXkXlXjXlX3X=X#XY.S.c.z.                    ",
"                      = ; = = = a.f.j.Z.!.Y.[.>X4XjXlXlXxXxXfXyX1X#X#XD.S.c.                        ",
"                        . . . . m h.b.W.Y.[.>X4XqXiXlXcXkXfXyX3X:X'.`.D.C.z.                        ",
"                          # # # % % W.!.[.-X4XuXuXkXcXlXfXyX3X:X#XP.S.C.                            ",
"                              o o + + % &X0XqXfXjXcXkXfX8X4X:X#XP.S.C.                              ",
"                                  o o o o o F.lXcXlXfX0X1X:X'.P.                                    ",
"                                                                                                    "
};
