/* XPM */
static char *coin51674391952[] = {
/* columns rows colors chars-per-pixel */
"50 50 233 2 ",
"   c None",
".  c #B8882A",
"X  c #B98A2C",
"o  c #BA8A2C",
"O  c #BA8B2D",
"+  c #BA8C2E",
"@  c #BC8F31",
"#  c #BE9234",
"$  c #BE9335",
"%  c #C09332",
"&  c #C09435",
"*  c #C69A32",
"=  c #C39937",
"-  c #CA9E31",
";  c #C09638",
":  c #C09739",
">  c #C2993A",
",  c #C79E38",
"<  c #C39A3C",
"1  c #C49B3D",
"2  c #C49D3F",
"3  c #DEB22C",
"4  c #CAA23B",
"5  c #C9A23E",
"6  c #D6AA30",
"7  c #D5AB36",
"8  c #D6AE38",
"9  c #DBB337",
"0  c #D7B23E",
"q  c #DBB43A",
"w  c #DDB63B",
"e  c #E1B52A",
"r  c #E1B52B",
"t  c #E2B62C",
"y  c #E2B72D",
"u  c #E2B72E",
"i  c #E2B82F",
"p  c #E3B931",
"a  c #E3B932",
"s  c #E3BB35",
"d  c #E4BC36",
"f  c #E4BC37",
"g  c #E4BD38",
"h  c #E4BE39",
"j  c #E4BE3A",
"k  c #E5BF3B",
"l  c #E5C03E",
"z  c #E5C13F",
"x  c #C69F42",
"c  c #C5A042",
"v  c #C6A143",
"b  c #C7A345",
"n  c #CAA341",
"m  c #CEA944",
"M  c #C9A648",
"N  c #C9A748",
"B  c #CAA849",
"V  c #CBA94B",
"C  c #CCAC4E",
"Z  c #CDAD4F",
"A  c #D1AB40",
"S  c #D0AE49",
"D  c #DFBB41",
"F  c #D9B94C",
"G  c #CEAE50",
"H  c #CEAF51",
"J  c #D4B653",
"K  c #D0B254",
"L  c #D1B355",
"P  c #D1B456",
"I  c #D4B754",
"U  c #D7BA55",
"Y  c #DDBF50",
"T  c #DABE57",
"R  c #D3B759",
"E  c #D3B95A",
"W  c #D7BC59",
"Q  c #D5BB5D",
"!  c #D5BB5E",
"~  c #D7BD5D",
"^  c #D8BF62",
"/  c #DFC355",
"(  c #DDC259",
")  c #E6C240",
"_  c #E6C342",
"`  c #E7C545",
"'  c #E7C546",
"]  c #E7C647",
"[  c #E7C748",
"{  c #E7C749",
"}  c #E4C54D",
"|  c #E7C84C",
" . c #E8C84A",
".. c #E8C94C",
"X. c #E8CA4D",
"o. c #E9CA4E",
"O. c #E9CB4F",
"+. c #E2C757",
"@. c #E9CC51",
"#. c #EACD53",
"$. c #EACF55",
"%. c #EACF56",
"&. c #E0C75D",
"*. c #E1C95E",
"=. c #E7CE5C",
"-. c #E5CC5F",
";. c #E9CF58",
":. c #EBD057",
">. c #EAD159",
",. c #EBD25A",
"<. c #EBD35E",
"1. c #EBD45F",
"2. c #ECD45D",
"3. c #ECD55F",
"4. c #D8C162",
"5. c #D9C163",
"6. c #DEC762",
"7. c #DAC365",
"8. c #DAC466",
"9. c #DBC566",
"0. c #DAC567",
"q. c #DDC96A",
"w. c #DDC96B",
"e. c #DECC6E",
"r. c #DFCC6F",
"t. c #E0CB68",
"y. c #E1CD6A",
"u. c #E1CE6D",
"i. c #E0CE6F",
"p. c #ECD660",
"a. c #EDD661",
"s. c #ECD662",
"d. c #EDD764",
"f. c #EDD865",
"g. c #E4D26F",
"h. c #E9D66B",
"j. c #ECD868",
"k. c #EDDA68",
"l. c #EEDA68",
"z. c #ECD96A",
"x. c #EFDC6A",
"c. c #EBDA6E",
"v. c #ECDA6C",
"b. c #EDDB6E",
"n. c #EEDC6C",
"m. c #EFDD6C",
"M. c #EFDD6E",
"N. c #E0CF70",
"B. c #E1D071",
"V. c #E2D072",
"C. c #E2D275",
"Z. c #E4D577",
"A. c #EDDC70",
"S. c #EEDF75",
"D. c #EEDF76",
"F. c #E6D779",
"G. c #E6D97B",
"H. c #E7DB7C",
"J. c #E8DA79",
"K. c #E9DB79",
"L. c #EADD79",
"P. c #EADE7E",
"I. c #F0DF70",
"U. c #EFE073",
"Y. c #EDE077",
"T. c #EFE077",
"R. c #EFE27A",
"E. c #EFE47F",
"W. c #F0E071",
"Q. c #F1E273",
"!. c #F0E174",
"~. c #F1E376",
"^. c #F0E377",
"/. c #F0E478",
"(. c #F1E478",
"). c #F1E57B",
"_. c #F2E67B",
"`. c #F0E47C",
"'. c #F1E57C",
"]. c #F0E57E",
"[. c #F3E97F",
"{. c #E9DE82",
"}. c #EAE082",
"|. c #EDE380",
" X c #EAE287",
".X c #EDE586",
"XX c #EEE687",
"oX c #EBE489",
"OX c #EFE98D",
"+X c #F1E681",
"@X c #F2E880",
"#X c #F1E883",
"$X c #F2E982",
"%X c #F4EA81",
"&X c #F2E984",
"*X c #F3EB85",
"=X c #F2EA86",
"-X c #F3EC87",
";X c #F4ED85",
":X c #F5EE87",
">X c #F1EA89",
",X c #F0EA8B",
"<X c #F3EC88",
"1X c #F2EC8A",
"2X c #F3ED8A",
"3X c #F3EE8B",
"4X c #F4EE8B",
"5X c #F5EF8B",
"6X c #F2ED8F",
"7X c #F4EF8C",
"8X c #F5EF8C",
"9X c #F6F18D",
"0X c #F0EB90",
"qX c #F2EF94",
"wX c #F4F090",
"eX c #F4F190",
"rX c #F4F091",
"tX c #F7F391",
"yX c #F5F392",
"uX c #F5F493",
"iX c #F6F493",
"pX c #F6F495",
"aX c #F6F596",
"sX c #F6F697",
"dX c #F8F796",
"fX c #F4F499",
"gX c #F7F798",
"hX c #F7F799",
"jX c #F7F89B",
"kX c #F7F89C",
"lX c #F7F99D",
"zX c #F8F898",
"xX c #F8FA9F",
/* pixels */
"                                                    zXzX                                            ",
"                                        <.2.s.f.m.W.~._.y.7.7.7.5.9.                                ",
"                                   .O.#.:.:.2.2.x.x.I.~._.%X:X9XdXaXaXdX                            ",
"                            k l ) ]  .| #.:.>.2.s.d.x.I.~._.[.:X2XtXuXtXuXrX                        ",
"                          a d k l ) ] { O.#.:.:.2.2.f.l.m.~._.[.%X9XiXzXN.e.g.u.                    ",
"                      r r u a d l _ ) ) [ 0 # . X O , +.x.W.~._.[.:X2XtXsXaX6XqXqX                  ",
"                    p r r r i s d l q # X X X X X X X X O m I.~._.%X:X9XuXzX}.B.C.B.                ",
"                  d d a u r r i * O X O D { O.#.$.>.s.d.m.( O O h._.[.:X9XiXzXrX>X>X1X              ",
"                l k k a a u 3 @ % 6 d k _ ` [ o.$.$.:.s.d.m.W._.M # _.@X:X9X9XsX^ P P K             ",
"              ] _ l k g d - # % r y p d k _ ` [ O.@.;.,.s.d.m.I.~.[.# S.%X%X9X9XaX.XXX.XXX          ",
"              [ ] _ l k = & 7 p t r t y d k _ ` [ [ @.$.:.s.f.x.W._.[.2 c.@X:X9XuXdX}.}.}.E.        ",
"            #.O.] ] ] $ & w k d a y t t p d k _ [ [ ..@.:.:.2.s.x.W.~.[.B B [.:X2XtXwXH.H.H.        ",
"          $.#.O. .{ m > > ) l k d p r r y p d k l [  .o.%.:.2.2.f.m.~._.%XM _.%X:X9XiXJ.F.F.K.      ",
"          >.%.$.#.| < n  .] _ l g d p u t y p d k l [ [ O.#.:.:.2.f.x.~._.%X> _.%X:X9X>XZ.Z.Z.      ",
"        s.<.>.:.#.x 2 @.O.[ [ l l g d p y t y p d k l [ [ O.%.:.:.s.f.m.W._.%XU _.%X:X9XG.G.G.K.    ",
"        d.s.2.>.F n ;.$.#.O.[ [ _ l g d p y t y p d k l [ [ O.#.>.>.2.f.x.W.~.W ~._.%X:X9XV Z Z     ",
"        x.f.d.<.b b p.>.:.#.#.{ ' _ l j g p u r r p d k ) ` [ ..#.:.,.3.f.x.I.(.U (._.%X:XZ.Z.Z.    ",
"      U.m.f.f.<.M d.p.p.>.:.#.| ..` _ l j g a u r t p d k ) ' ' ..O.:.:.3.f.x.I.J m.(._.[.u.5.5.5.  ",
"      _.U.m.l.B M S.l.p.2.>.:.#.o...' _ l j g p p r t p d k _ _  . .O.$.,.2.f.x.I.j.m.(._.[.B.B.B.  ",
"      ].R.U.S.B B S.m.f.s.p.>.$.@...[ ' _ k g g p r r y p g k ) `  .O.$.:.,.3.f.m./ x.W.~.].! ! !   ",
"      @X].~.U.G t._.S.l.l.d.p.=.;.@...[ ` ` k g a p p r y p g g z `  ...#.:.,.2.d.H x.x.I.~.N.w.e.  ",
"    2X3X@X].U.H &X[.~.U.m.l.p.p.;.$.@.@.[ ` ` k j d p t r y p g l z `  .O.O.:.,.<.( s.x.x.I.w.w.w.  ",
"    uX2X3X@Xg.K 9X&X@X_.U.m.f.d.a.;.$.#.o...` ` l j g p y r y p d l l [  . .#.:.>.=.2.s.d.x.P H H H ",
"    aXuX9X*X7.P rX9X&X[.[.U.m.k.a.p.;.;.#.o.[ ' ` l g g a t t t y s l _ _ [ ..O.;.:.>.2.2.d.t.7.7.7.",
"    lXaXrX9X^ R gXrX9X*X@X].U.m.l.s.p.>.;.@.O.[ ` _ l k g a r r t y d l l _ [ ..#.$.$.:.:.s.U M M B ",
"    xXxXaX9X4.E lXaXwX3X*X[.R.U.n.d.s.<.:.$.@.O.' ' _ l g g a a r r s d l z `  .O.#.#.$.>.:.6.^ 4.4.",
"    xXxXgXaXr.! lXlXaX9X9X&X@X_.S.x.d.s.a.;.;.@.....` l l k a a u r r a d l z _ { O.O.#.:.>.S x x x ",
"    uXzXxXlX{.^ aXlXlXaXwX9X*X@X_.U.n.l.s.a.>.$.#.o...` _ k g g a i r u p d l z ) } { O.#.:.~ ! ! ! ",
"    qXaXlXxXfX^ rXaXlXlXsXyX9X*X]._.S.x.l.d.<.;.%.#.o.[ ' _ l k s a u r y p d k _ / ]  .O.O.R R R   ",
"      9XpXgXxX7.G.rXaXlXlXjXwX9X*X@X_.W.n.l.s.p.:.%.#.O..._ _ l k d a u r r p d k 7._ ] [ O.K K K   ",
"      3XrXaXjXw.w.3XrXaXlXlXgXwX9X*X[._.~.n.l.s.a.:.%.%.O.[ ' _ l k d p y r r i d / l _ ] [ P P P   ",
"      &X9XrXaXe.e.&X3XuXaXlXlXaXwX3X@X+X).I.n.d.s.a.;.$.@.O.} ' _ l k d p y r u a k k _ _ ] H Z H   ",
"      +X>X7XrXwXN.E.&X3XrXaXlXlXaXwX9X=X].R.U.m.f.p.<.2.;.@.| { ] _ k k d p y r &.p g g l F H H P   ",
"        +X&X3X9XC.C.].&X*XrXaXlXlXaX9X9X*X[./.U.m.k.p.<.>.$.@.O.[ [ _ k k d p y &.p p d k ; ; ;     ",
"        `.+X&X3XXXF.U.E.+X3XrXaXlXlXaXwX9X#X].R.U.S.k.p.p.>.$.$.O.[ { _ k k d =.r r p p s C G C     ",
"        S.`.].&X3XG.H.R.E.&X*XrXaXlXlXjXyX9X*X@XR.U.m.x.p.<.>.>.#.@..._ _ k k t.y r r a n x x x     ",
"          S.R.E.@X3X{.P.S._.+X3X9XfXlXlXaXuX9X&X[.R.U.I.k.p.p.>.;.#.O.[ ` _ {.d a u u 8 M M M       ",
"          S.S.R.].&XXXoX XS.R.+X3X9XaXjXxXjXrX7X%X%X/.R.I.k.p.p.:.%.#.@.[ P.k d s a u b b b b       ",
"            S.S.].+X>XoXoXS.U.|.@X6XrXaXxXlXaX9X9X=X#X/.U.x.f.p.a.;.$.@.{.L.k k s s 9 b b b         ",
"              n.S.`.|.&XOXOX_.).E.&X9X9XaXlXlXaX9X9X&X].~.U.m.k.s.a.;.XX#.[ _ _ k g x x x b         ",
"              n.A.S.`.+X#X6X0X0XR.E.@X3X7XaXjXlXaXuX9X&X]._.W.S.l.s.0X$. .[ ] _ _ # # # #           ",
"                l.A.S.E.].&X3XqXqX@X|.&X3XrXaXxXlXzXrX9X:X@X~.U.>XqX:.$.O.O.[ ] 5 > 2 2             ",
"                  n.A.S.R.`.&X3XrXgXfXfX&X>XrXaXlXxXgXrX2X2XfXfXx.<.>.:.#.#.| 5 @ @ @               ",
"                    c.A.S.).].#X3XqXaXlXgXlXxXjXjXlXlXgXxX9Xm.x.f.s.2.>.:.$.5 > $ ;                 ",
"                      c.A.S.`.+X&X9XrXaXjXxXxXxXxXxXaX2X]._.U.m.l.f.p.<.>.F O O O                   ",
"                          A.S.`.+X&X9XwXaXjXxXjXaXrX3X:X@X].~.U.m.l.d.p.$ # $ $                     ",
"                            A.S.].+X&X3X9XaXjXxXlXaXrX9X&X@X_._.U.m.> @ @ @                         ",
"                                  ].|.&X3X9XaXlXlXjXaXuX3X3X+X@X$ O O O                             ",
"                                        |.7XrXaXzXxXlXpXE O O O O O                                 ",
"                                                    . .                                             "
};
