/* XPM */
static char *New_Project__1_1674181072[] = {
/* columns rows colors chars-per-pixel */
"50 50 233 2 ",
"   c None",
".  c #B8882A",
"X  c #B98A2C",
"o  c #BA8A2C",
"O  c #BA8B2D",
"+  c #BA8C2E",
"@  c #BC8F31",
"#  c #BE9234",
"$  c #BE9335",
"%  c #C09332",
"&  c #C09435",
"*  c #C69A32",
"=  c #C39937",
"-  c #CA9E31",
";  c #C09638",
":  c #C09739",
">  c #C2993A",
",  c #C79E38",
"<  c #C39A3C",
"1  c #C49B3D",
"2  c #C49D3F",
"3  c #DEB22C",
"4  c #CAA23B",
"5  c #C9A23E",
"6  c #D6AA30",
"7  c #D5AB36",
"8  c #D6AE38",
"9  c #DBB337",
"0  c #D7B23E",
"q  c #DBB43A",
"w  c #DDB63B",
"e  c #E1B52A",
"r  c #E1B52B",
"t  c #E2B62C",
"y  c #E2B72D",
"u  c #E2B72E",
"i  c #E2B82F",
"p  c #E3B931",
"a  c #E3B932",
"s  c #E3BB35",
"d  c #E4BC36",
"f  c #E4BC37",
"g  c #E4BD38",
"h  c #E4BE39",
"j  c #E4BE3A",
"k  c #E5BF3B",
"l  c #E5C03E",
"z  c #E5C13F",
"x  c #C69F42",
"c  c #C5A042",
"v  c #C6A143",
"b  c #C7A345",
"n  c #CAA341",
"m  c #CEA944",
"M  c #C9A648",
"N  c #C9A748",
"B  c #CAA849",
"V  c #CBA94B",
"C  c #CCAC4E",
"Z  c #CDAD4F",
"A  c #D1AB40",
"S  c #D0AE49",
"D  c #DFBB41",
"F  c #D9B94C",
"G  c #CEAE50",
"H  c #CEAF51",
"J  c #D4B653",
"K  c #D0B254",
"L  c #D1B355",
"P  c #D1B456",
"I  c #D4B754",
"U  c #D7BA55",
"Y  c #DDBF50",
"T  c #DABE57",
"R  c #D3B759",
"E  c #D3B95A",
"W  c #D7BC59",
"Q  c #D5BB5D",
"!  c #D5BB5E",
"~  c #D7BD5D",
"^  c #D8BF62",
"/  c #DFC355",
"(  c #DDC259",
")  c #E6C240",
"_  c #E6C342",
"`  c #E7C545",
"'  c #E7C546",
"]  c #E7C647",
"[  c #E7C748",
"{  c #E7C749",
"}  c #E4C54D",
"|  c #E7C84C",
" . c #E8C84A",
".. c #E8C94C",
"X. c #E8CA4D",
"o. c #E9CA4E",
"O. c #E9CB4F",
"+. c #E2C757",
"@. c #E9CC51",
"#. c #EACD53",
"$. c #EACF55",
"%. c #EACF56",
"&. c #E0C75D",
"*. c #E1C95E",
"=. c #E7CE5C",
"-. c #E5CC5F",
";. c #E9CF58",
":. c #EBD057",
">. c #EAD159",
",. c #EBD25A",
"<. c #EBD35E",
"1. c #EBD45F",
"2. c #ECD45D",
"3. c #ECD55F",
"4. c #D8C162",
"5. c #D9C163",
"6. c #DEC762",
"7. c #DAC365",
"8. c #DAC466",
"9. c #DBC566",
"0. c #DAC567",
"q. c #DDC96A",
"w. c #DDC96B",
"e. c #DECC6E",
"r. c #DFCC6F",
"t. c #E0CB68",
"y. c #E1CD6A",
"u. c #E1CE6D",
"i. c #E0CE6F",
"p. c #ECD660",
"a. c #EDD661",
"s. c #ECD662",
"d. c #EDD764",
"f. c #EDD865",
"g. c #E4D26F",
"h. c #E9D66B",
"j. c #ECD868",
"k. c #EDDA68",
"l. c #EEDA68",
"z. c #ECD96A",
"x. c #EFDC6A",
"c. c #EBDA6E",
"v. c #ECDA6C",
"b. c #EDDB6E",
"n. c #EEDC6C",
"m. c #EFDD6C",
"M. c #EFDD6E",
"N. c #E0CF70",
"B. c #E1D071",
"V. c #E2D072",
"C. c #E2D275",
"Z. c #E4D577",
"A. c #EDDC70",
"S. c #EEDF75",
"D. c #EEDF76",
"F. c #E6D779",
"G. c #E6D97B",
"H. c #E7DB7C",
"J. c #E8DA79",
"K. c #E9DB79",
"L. c #EADD79",
"P. c #EADE7E",
"I. c #F0DF70",
"U. c #EFE073",
"Y. c #EDE077",
"T. c #EFE077",
"R. c #EFE27A",
"E. c #EFE47F",
"W. c #F0E071",
"Q. c #F1E273",
"!. c #F0E174",
"~. c #F1E376",
"^. c #F0E377",
"/. c #F0E478",
"(. c #F1E478",
"). c #F1E57B",
"_. c #F2E67B",
"`. c #F0E47C",
"'. c #F1E57C",
"]. c #F0E57E",
"[. c #F3E97F",
"{. c #E9DE82",
"}. c #EAE082",
"|. c #EDE380",
" X c #EAE287",
".X c #EDE586",
"XX c #EEE687",
"oX c #EBE489",
"OX c #EFE98D",
"+X c #F1E681",
"@X c #F2E880",
"#X c #F1E883",
"$X c #F2E982",
"%X c #F4EA81",
"&X c #F2E984",
"*X c #F3EB85",
"=X c #F2EA86",
"-X c #F3EC87",
";X c #F4ED85",
":X c #F5EE87",
">X c #F1EA89",
",X c #F0EA8B",
"<X c #F3EC88",
"1X c #F2EC8A",
"2X c #F3ED8A",
"3X c #F3EE8B",
"4X c #F4EE8B",
"5X c #F5EF8B",
"6X c #F2ED8F",
"7X c #F4EF8C",
"8X c #F5EF8C",
"9X c #F6F18D",
"0X c #F0EB90",
"qX c #F2EF94",
"wX c #F4F090",
"eX c #F4F190",
"rX c #F4F091",
"tX c #F7F391",
"yX c #F5F392",
"uX c #F5F493",
"iX c #F6F493",
"pX c #F6F495",
"aX c #F6F596",
"sX c #F6F697",
"dX c #F8F796",
"fX c #F4F499",
"gX c #F7F798",
"hX c #F7F799",
"jX c #F7F89B",
"kX c #F7F89C",
"lX c #F7F99D",
"zX c #F8F898",
"xX c #F8FA9F",
/* pixels */
"                                            zXzX                                                    ",
"                                0.7.7.7.7.y._.Q.W.M.l.p.3.2.                                        ",
"                            aXaXaXaX8X:X*X_.Q.I.x.l.p.2.>.$.@.o.[                                   ",
"                        tXtXtXaXtX4X:X%X_.Q.W.x.d.p.3.,.$.@.o. .[ ` z j                             ",
"                    i.N.i.i.dXtX4X:X[._.Q.W.x.d.p.>.>.$.@.o. .` ` z j f p                           ",
"                  6X6X6XaXdXtX4X;X[._.~.I.x.+., X . o % 0 [ ` _ z j f i u r r                       ",
"                N.C.C.}.dXiX9X:X[._.~.W.m X X X X X o o X X @ q l f s i r r u p                     ",
"              ,X,XOXtXdXtX9X4X%X_.h.O O ( m.f.3.>.:.$.o. .D O X X * i r r u p d j                   ",
"            L P P ^ dXtX4X:X[._.@ m (.Q.m.l.2.,.$.$.o. .` z k f 6 @ @ 3 u p d f j z                 ",
"          .X.X.X.XdXtX8X:X%XQ.$ [.(.Q.x.f.2.,.:.@.o. .[ z j f a r r % # - s j j z _ `               ",
"        |.}.}.}.dX9X4X:X[.c.2 [.(.I.x.f.2.,.:.O.o. .` z l f a y 3 u a 7 & = j z _ ` {               ",
"        H.H.H.9XiX4X:X[.B B [._.W.l.f.2.,.:.#. .` ` _ j d a e e a a f j w ; ; _ ` { o.@.            ",
"      K.F.F.F.iX9X:X%X_.N %X_.Q.M.d.p.2.:.#.o. .` z l d i e e y a s g k _ < ; A { o.o.@.:.          ",
"      Z.Z.Z.,X9X:X%X_.1 [._.W.m.f.p.,.%.#.o. .` z k d a i e i a s f ) _ `  .n > | @.@.>.>.          ",
"    K.G.G.H.9X:X%X_.U [.~.Q.m.f.3.,.%.%.o. .` z l d a i e i a a k ) _ _  .@.@.x x @.,.,.1.p.        ",
"    C C C 4X:X%X_.~.W ~.W.m.f.p.,.%.@.o. .` z l d a e e y i d l k _  . .o.@.$.$.x Y ,.2.3.f.        ",
"    Z.Z.Z.*X%X[.Q.J (.I.l.d.p.%.%.@.o. .` k k d p y r t p g g l _ `  .o.@.>.>.<.b b <.s.f.f.        ",
"  5.5.5.u.[._.~.I.U I.M.d.p.,.%.@. .[ [ ` k d p y r p p d g l _ `  .X.$.:.>.s.s.f.N 1.d.x.m.T.      ",
"  V.N.N.[._.~.I.j.I.l.d.2.2.%.@. .[ z z k d p y r y p d j ) _ '  .X.:.:.2.3.p.l.b.N B x.m.U._.      ",
"  ~ Q ~ _.~.W.l.T M.d.p.,.%.#.#. .[ z k d p y y y p d g ) _ '  . .X.:.>.1.p.f.m.S.C C m.U.T._.      ",
"  i.e.e.~.I.M.l.G d.p.,.#.#. . .` z k d a y e y p d j l ) '  . .O.:.>.1.3.k.m.U.Q.t.G S.T._.$X      ",
"  w.w.w.I.M.l.a.( p.,.$.@.#. .' z k d a y e y a d j l _ '  .o.#.:.>.1.s.k.I.U.R.$X=XG Q._.$X1X1X    ",
"G G G L l.d.p.p.=.,.$.@. . ._ l k d a y e y a d g ) _ '  .@.#.;.>.1.s.k.I.U.R.[.*X4XL g.$X-X9XyX    ",
"0.7.0.t.d.p.2.%.,.;.@. . ._ ` k d a e e y a d k k ` '  . .#.%.;.1.s.k.I.U.R.].-X4XiXP 0.,X4XtXaX    ",
"N N N U p.>.>.$.%.@. . .` k g g a r r u p g j k _ '  .@.#.%.2.p.s.f.m.U._.$X-X9XwXhXR ^ 6XtXhXkX    ",
"4.^ ^ 6.2.;.$.$.#.@. ._ ` k g p u r u a d j k ` _  . .@.%.%.2.p.f.x.T.R.[.-X1X9XaXkXE 7.9XaXkXxX    ",
"x x x S ;.$.$.o. . .[ z j g p y r u a s g k _  . . .#.;.;.p.p.d.x.U.R.[.$X9X9XaXkXkX! e.aXjXkXkX    ",
"Q Q Q ~ %.@.o. .{ [ z j d p y r u a g g ) _ _  .o.#.;.;.p.d.l.b.U.R.[.-X9XyXfXkXkXhX4.}.kXkXkXaX    ",
"  R R R @.o. .` / _ j d a u r u a d j k ` _  .o.$.;.;.p.p.j.M.I.R.[.$X9XwXjXkXkXaXwX4.fXxXkXaXwX    ",
"  L L L o. .` _ 7.j d a r r u a d j ) _ _  .@.#.$.;.p.p.j.M.Q.(.$X$X9XyXjXxXkXaXwXH.0.xXhXaX9X      ",
"  P L L  .[ _ z +.s p r r u a f g ) _ _  .o.%.%.,.p.d.l.m.W.].+X-X9XiXjXkXkXaXtX,Xw.w.hXpXwX1X      ",
"  G G G _ _ _ j j p u r u a s k k _ { { o.@.%.;.<.p.d.m.S._.+X%X1X9XaXxXkXaXiX1X$Xe.e.pXtX9X=X      ",
"  L G G F z j d a &.r u a d f z _ `  .| @.:.>.<.s.f.b.U.R.[.$X3XwXuXxXxXaXwX1X$XE.g.wXwX9X-X+X      ",
"    > $ ; j j a u *.u a d j k _ `  .o.@.:.>.s.s.l.m.U.R.[.-X9X9XfXlXlXfXwX-X=XE.C.C.wX1X-X|.        ",
"    C C C s p u r r -.d g _ _ `  .o.@.:.>.1.s.l.I.U.R.[.$X9XyXfXxXxXuX9X-X#X|.Y.G..X1X=X$XR.        ",
"    c c x n a r r u -.j _ _ `  .O.@.:.>.1.s.l.m.U.R.[.$X9XyXsXxXkXuXwX-X#XE.R.H.G.1X$X_.E.T.        ",
"      N N N 8 r u a d {._ _  .@.@.:.2.1.s.x.x.R._.[.-X9X9XsXkXkXuXwX-X#XE.U.Y.{.,X=XE.R.S.          ",
"      b b b b a a s g k P.{ o.@.:.>.1.s.l.m.Q.R.$X$X9XyXjXkXjXfXwX1X&XR.T. X X.X$X_.R.S.m.          ",
"        b b b 9 s g k _ K.P.@.$.>.1.s.f.m.U.T.[.-X1XwXsXkXkXsXyX9X&X].R.Y. XoX&X+X].S.b.            ",
"        x x x x g k k _ [ $.XX>.1.s.x.x.U.R.[.=X9X9XsXkXkXsXwX9X#XE.T.R.OXOX-X#X(.S.S.              ",
"          $ # $ $ ) _ `  .{ $.0Xs.z.m.U.R.[.$X9XiXhXkXkXaX9X-X$XE.R.0X0X0X=X+XR.D.A.A.              ",
"            1 < < 2 `  .o.@.$.;.wX-XT._.[.$X9XyXjXkXkXaXwX1X$XE.$XqXrX1X=X_.R.S.b.c.                ",
"              # @ @ 4 @.@.%.%.,.2.k.fXfX9X1XiXjXkXkXaXwX1X=XfXfXfXpX1X$X_.R.S.S.l.                  ",
"                & > ; 4 %.%.,.p.f.f.k.I.9XjXkXkXkXkXkXkXkXjXjXaXtX1X=XE.R.S.b.b.                    ",
"                  O X X F ;.2.p.s.k.m.U.R.R.-XfXxXkXxXxXxXkXaXiX6X=X+XR.S.b.c.                      ",
"                    $ $ % $ p.d.k.I.U.R._.$X-X9XiXaXkXxXhXaXwX6X=X+X_.S.S.                          ",
"                        @ @ @ = I.U./.R.$X-X9XwXjXkXxXjXpXwX1X=X+X_.S.A.                            ",
"                            @ X + $ [.$X-X9XiXaXjXkXjXaX9X4X=X+XE.                                  ",
"                                X X O O O E aXxXxXzXaXtX1XE.                                        ",
"                                            . .                                                     "
};
