/* XPM */
static char *New_Project__6_1674182569[] = {
/* columns rows colors chars-per-pixel */
"50 50 30 1 ",
"  c None",
". c #F28A1F",
"X c #F28E1D",
"o c #F28C1E",
"O c #F39E17",
"+ c #F3911C",
"@ c #F3981A",
"# c #F4B50D",
"$ c #F5B80B",
"% c #F5BD09",
"& c #F4A911",
"* c #F4AC11",
"= c #F5C306",
"- c #F6C605",
"; c #F6CD03",
": c #F6D100",
"> c #F6D001",
", c #F6D415",
"< c #F6D82E",
"1 c #F6D933",
"2 c #F6DA3F",
"3 c #F6DB43",
"4 c #F6DD53",
"5 c #F6DE5A",
"6 c #F6E169",
"7 c #F6E378",
"8 c #F6E47E",
"9 c #F6E584",
"0 c #F6E586",
"q c #F6E68E",
/* pixels */
"                                                  ",
"                              .....               ",
"                            ........              ",
"                           .........              ",
"                    ..    ...........             ",
"                    ...   ...........             ",
"                    ...  ............             ",
"                    ...  .......   ..             ",
"                .  .............                  ",
"               .................                  ",
"              ..................                  ",
"              ...................                 ",
"             ....................                 ",
"            .....................                 ",
"            ....................                  ",
"            ....................                  ",
"            ...................                   ",
"            ...........;.......              .    ",
"             ..........>.......             ..    ",
"        ..   .........>>......          ..  ..    ",
"         .. .........>>+......          ......    ",
"         ............>>.......         .......    ",
"          ..........$>>o......        ........    ",
"           .........>>:o.......      .........    ",
"            ........::>..........   ..........    ",
"             .......:>>......................     ",
"             ...+>o.::>o.....................     ",
"    .     ......>>@o::>o....................      ",
"    ..    ......>>;o=>>>...................       ",
"    ..    ......->>O::>>>&.................       ",
"    ...   ......o:>>:::,>>>$.o.............       ",
"    ....  ......o:::::8qq:>>>>-................   ",
"    .........*#..>>:::qqq4:::::+...............   ",
"     ........>>-*:>::8qqq1:::::+...............   ",
"     .......o:>>::qqqqqqq:::::>................   ",
"      ......o::::1qqqqqqq::::>>*....@.........    ",
"       ......>>>:qqqqqqqq3::::::>>:::o........    ",
"         ....>:::qqqqqqqqqqqqqqq2>::;&.......     ",
"         ...o>:::3qqqqqqqqqqqqqqq:::;.......      ",
"         ....o::::qqqqqqqqqqqqqq9:::>.......      ",
"          ....*>>>qqqqqqqqqqqqq5:>>>.......       ",
"          .....o#>::160075<:::>>:>$.......        ",
"           .......>>:>>:::::::>>:o........        ",
"           .......o.->::::::::>o.o.......         ",
"            ..........o-:>>O............          ",
"             ...........oo............            ",
"               .....................              ",
"                 ...............                  ",
"                      .....                       ",
"                                                  "
};
