/* XPM */
static char *New_Project__8_1674182570[] = {
/* columns rows colors chars-per-pixel */
"50 50 68 1 ",
"  c None",
". c #F28A1F",
"X c #F28F1D",
"o c #F28C1E",
"O c #F39E16",
"+ c #F3931B",
"@ c #F3951A",
"# c #F2901C",
"$ c #F39A18",
"% c #F4AF0F",
"& c #F4B10E",
"* c #F5B50C",
"= c #F5B80B",
"- c #F5BB0A",
"; c #F5BD09",
": c #F4A513",
"> c #F3A215",
", c #F3A016",
"< c #F4A812",
"1 c #F4AC10",
"2 c #F5C107",
"3 c #F5C206",
"4 c #F5C605",
"5 c #F6CA03",
"6 c #F6CE01",
"7 c #F6CC02",
"8 c #F6CE02",
"9 c #F6C804",
"0 c #F6CC04",
"q c #F5C008",
"w c #F6D000",
"e c #F6D100",
"r c #F6D103",
"t c #F6D204",
"y c #F6D208",
"u c #F6D30A",
"i c #F6D30D",
"p c #F6D411",
"a c #F6D415",
"s c #F6D418",
"d c #F6D51C",
"f c #F6D51F",
"g c #F6D725",
"h c #F6D72A",
"j c #F6D82E",
"k c #F6D935",
"l c #F6D939",
"z c #F6DA3D",
"x c #F6DB43",
"c c #F6DC4C",
"v c #F6DD50",
"b c #F6DD52",
"n c #F6DE55",
"m c #F6DE59",
"M c #F6E065",
"N c #F6E16B",
"B c #F6E16E",
"V c #F6E272",
"C c #F6E275",
"Z c #F6E378",
"A c #F6E37B",
"S c #F6E480",
"D c #F6E482",
"F c #F6E586",
"G c #F6E38B",
"H c #F6E589",
"J c #F6E68C",
"K c #F6E68E",
/* pixels */
"                                                  ",
"                              ...                 ",
"                             ....                 ",
"                            ....                  ",
"                           ....                   ",
"                           ....                   ",
"                           .....                  ",
"                          ........                ",
"                          ..........              ",
"                     ..   ..........              ",
"                    ...  ...........              ",
"                    ................              ",
"                    ........%$.....               ",
"                    .......@6=....                ",
"                    ...@$o.1e;....                ",
"                    ...;e626e:...  ..             ",
"                    ...;eeee6oo......             ",
"                    ...;eeee;.......              ",
"             ..     ...;eeee>......               ",
"             ...   ....qeee5+.....                ",
"             ...   ...+4eeeq.....                 ",
"             .........Oeeee2.....      ..         ",
"             .........*eept5o.....    ..          ",
"              .......+5ezHm0@...........          ",
"              .+1$...&eySKHl:..........           ",
"             ..1e5o.+eeiHKKB5+.........           ",
"         .. ..+7ee:oqeeySKKFd6;1:+....            ",
"        ......>eee6qeeeeBKKKzeeeee$...            ",
"       .......;eeeeeeeeecKKKbeeee*o....   ..      ",
"       ......o6eeeeeeeeehKKKbeeeqo..........      ",
"       ......>eeeeeeeeeesKKKxeee:....>@.....      ",
"       ......=eeeeeetsaekKKKheeeO...165o....      ",
"      ......o5eeeeeyMKHmSKKSieee*o+16eeO....      ",
"      ......>6eeeeyNKKKKKKKVeeeee45eeee:....      ",
"      ......1eeeeenKKKKKKKKBeeeeeeeeeee1....      ",
"      ......*eeeeaKKKKKKKKKZeetzVBheeee:....      ",
"      ......*eeeebKKKKKKKKKSyaZKKKHaeee:....      ",
"      ......1eeetBKKKKKGKKKFcFKKKKKjee6O....      ",
"      ......O6eeyAKKKKKKKKKKKKKKKKKgee0+.....     ",
"       .....oqeeiZKKKKKKKKKKKKKKKKFiee;......     ",
"       ......$6eeMKKKKKKKKKKKKKKKKneee:.....      ",
"        ......1eelKKKKKKKKKKKKKKKZpee;o.....      ",
"        .......16tCKKKKKKKKKKKKKZgee2o.....       ",
"         ......o16dZKKKKKKKKKKHmpee2#.....        ",
"          .......O0ibHKKKKKKHbdeee2X.....         ",
"           .......+*eygkzljaeeee6%o.....          ",
"             .......$*;q44554q=:+.o....           ",
"               ......................             ",
"                 ..................               ",
"                      .......                     "
};
