/* XPM */
static char *New_Project__5_1674182569[] = {
/* columns rows colors chars-per-pixel */
"50 50 52 1 ",
"  c None",
". c #F28A1F",
"X c #F28B1F",
"o c #F38F1D",
"O c #F28E1E",
"+ c #F39E17",
"@ c #F3941B",
"# c #F3911C",
"$ c #F39819",
"% c #F39C18",
"& c #F5B70B",
"* c #F4B10E",
"= c #F5B50D",
"- c #F5BA0A",
"; c #F5BE08",
": c #F4A514",
"> c #F4AA11",
", c #F4A912",
"< c #F4AD10",
"1 c #F4AE10",
"2 c #F6C406",
"3 c #F6CB03",
"4 c #F6CC02",
"5 c #F6C804",
"6 c #F5C008",
"7 c #F6D100",
"8 c #F6D001",
"9 c #F6D207",
"0 c #F6D30B",
"q c #F6D30F",
"w c #F6D417",
"e c #F6D725",
"r c #F6D52C",
"t c #F6D931",
"y c #F6D936",
"u c #F6DA3B",
"i c #F6D93D",
"p c #F6DB42",
"a c #F6DB44",
"s c #F6DC48",
"d c #F6DD4F",
"f c #F6DE55",
"g c #F6DF5D",
"h c #F6E063",
"j c #F6E065",
"k c #F6E16C",
"l c #F6E272",
"z c #F6E377",
"x c #F6E37B",
"c c #F6E482",
"v c #F6E588",
"b c #F6E68E",
/* pixels */
"                                                  ",
"                                                  ",
"                                                  ",
"               ...                                ",
"               ....                               ",
"                .....                             ",
"                ......                            ",
"                .......                           ",
"                 ......                           ",
"          .      ......                           ",
"         ..      ......                           ",
"         ...     ......                           ",
"        ....    .......     .                     ",
"        .....   ......      .                     ",
"         .............     ..                     ",
"         .............    ...                     ",
"         ....................                     ",
"          .......o7..........                     ",
"           ......<7..........                     ",
"           .....#75..........                     ",
"            ....>7;.........                      ",
"            ....*76.........      ..              ",
"             ...-77+$27>...       ..              ",
"             ...&777777%..       ...              ",
"             ...*777777X..       ...              ",
"             ...%777777...      .....             ",
"             ...o37777;.....   .......            ",
"             ...o27ez7-................           ",
"            .....47db75.................          ",
"      ..    ....$77jbe7.................          ",
"      ..   .....-77jbk77=.......>;>.....          ",
"      ..   .....477hbv777$.....:777.....          ",
"      ... ......777gbb7777772777777.....          ",
"      .........%777fbby7ebct7777777.....          ",
"      .....:o..-777fbbv9cbbb7777777.....          ",
"      ....:77..7777fbbbbbbbb7777777.....          ",
"      ....4775&7777lbbbbbbbx7777777....           ",
"      ...@777777770bbbbbbbbs7777777...            ",
"      ...$77777777jbbbbbbbba7777777...   ..       ",
"       ..@7777777wbbbbbbbbbj7777777........       ",
"       ...477777wbbbbbbbbbbb777777<.......        ",
"       ...;77777ubbbbbbbbbbb777777#.......        ",
"        ..@77777ibbbbbbbbbbb77777#.......         ",
"        ...77777pbbbbbbbbbr77777=......           ",
"        ...:7777wkbbbbbbxe777777.......           ",
"         ...%777777777777777774......             ",
"           ....*777777777777=......               ",
"             ........#:<,#......                  ",
"               ................                   ",
"                                                  "
};
