/* XPM */
static char *_6b8fe79f44d4edd97db20e0f0219b06vZh68ms2TO9juBaB[] = {
/* columns rows colors chars-per-pixel */
"50 50 125 2 ",
"   c None",
".  c #FF5400",
"X  c #FF5B00",
"o  c #FF6300",
"O  c #FF6C00",
"+  c #FF7300",
"@  c #FF7C00",
"#  c #FF8300",
"$  c #FF8A00",
"%  c #FF9300",
"&  c #FF9B00",
"*  c #FFA400",
"=  c #FFAA05",
"-  c #FFAD09",
";  c #FFB10D",
":  c #FFB512",
">  c #FFB916",
",  c #FFBD1B",
"<  c #FFC01E",
"1  c #FFC325",
"2  c #FFC524",
"3  c #FFC625",
"4  c #FFC526",
"5  c #FFC626",
"6  c #FFC726",
"7  c #FFC627",
"8  c #FFC727",
"9  c #FFC322",
"0  c #FFC927",
"q  c #FFC729",
"w  c #FFC829",
"e  c #FFC82B",
"r  c #FFC92B",
"t  c #FFCA2A",
"y  c #FFCB2C",
"u  c #FFC92F",
"i  c #FFCB2E",
"p  c #FFC92C",
"a  c #FFCA30",
"s  c #FFCA31",
"d  c #FFCD34",
"f  c #FFCC37",
"g  c #FFCD37",
"h  c #FFCE37",
"j  c #FFCB33",
"k  c #FFCC3A",
"l  c #FFCE3D",
"z  c #FFCF3D",
"x  c #FFCE3F",
"c  c #FFCD3B",
"v  c #FFCE40",
"b  c #FFCF42",
"n  c #FFCE43",
"m  c #FFCF42",
"M  c #FFD041",
"N  c #FFD042",
"B  c #FFD044",
"V  c #FFD145",
"C  c #FFD148",
"Z  c #FFD149",
"A  c #FFD14B",
"S  c #FFD14D",
"D  c #FFD24B",
"F  c #FFD451",
"G  c #FFD453",
"H  c #FFD554",
"J  c #FFD555",
"K  c #FFD456",
"L  c #FFD556",
"P  c #FFD453",
"I  c #FFD55C",
"U  c #FFD65E",
"Y  c #FFD55C",
"T  c #FFD763",
"R  c #FFD862",
"E  c #FFD864",
"W  c #FFD866",
"Q  c #FFD869",
"!  c #FFDA68",
"~  c #FFD96A",
"^  c #FFD96B",
"/  c #FFDA6D",
"(  c #FFDB6F",
")  c #FFDD6F",
"_  c #FFD968",
"`  c #FFDB70",
"'  c #FFDC74",
"]  c #FFDD78",
"[  c #FFDE7C",
"{  c #FFDE7D",
"}  c #FFDE7E",
"|  c #FFDE7F",
" . c #FFDE7B",
".. c #FFE07F",
"X. c #FFDF80",
"o. c #FFE081",
"O. c #FFE081",
"+. c #FFE189",
"@. c #FFE28C",
"#. c #FFE28F",
"$. c #FFE28B",
"%. c #FFE290",
"&. c #FFE596",
"*. c #FFE491",
"=. c #FFE69E",
"-. c #FFE69A",
";. c #FFE6A0",
":. c #FFE8A2",
">. c #FFE9A5",
",. c #FFEAA9",
"<. c #FFEBAD",
"1. c #FFEAAB",
"2. c #FFECB3",
"3. c #FFECB8",
"4. c #FFEEBD",
"5. c #FFEFBF",
"6. c #FFF0BF",
"7. c #FFEFC1",
"8. c #FFF1C8",
"9. c #FFF2CB",
"0. c #FFF4D1",
"q. c #FFF6DC",
"w. c #FFF8DF",
"e. c #FFF7E1",
"r. c #FFF8E3",
/* pixels */
"                                                                                                    ",
"                                                                                                    ",
"                                                                                                    ",
"                                            .                                                       ",
"                                            o X .                                                   ",
"                                            O O o X                                                 ",
"                                          . + @ + O .                                               ",
"                                          X + $ # + o                                               ",
"                                          o @ $ % # O X                                             ",
"                                        X O # & * % @ o                                             ",
"                                        o + # & * * $ O .                                           ",
"                                      X O @ $ * = * % @ X     X X                                   ",
"                                    . o + $ % = = = * # X     X o .                                 ",
"                                  . o + # % & = - = * # O     . O O .                               ",
"                                . o + @ $ % * - - - = $ O     X @ # o .                             ",
"                              . o + @ $ & * = ; : ; = $ O     o # $ + o                             ",
"                            . o O @ $ & * = = : : ; = % + . . O $ % $ O .                           ",
"                            X O @ # & * = = ; : > : - % + o o @ % * & @ o                           ",
"                          X o + # % * * - - ; > > : ; & # + @ # & = * # O .                         ",
"                          X O # % * = = - ; : , > > ; * % $ % & = = = % + X                         ",
"                        . o @ $ & = = ; ; : , , , , ; = * * * * - - = & @ X                         ",
"                        X O @ % * = - ; : > , < < , : = = = = = ; - = & @ o                         ",
"                        o + # & = - ; : > , < 9 9 , : - - - - ; : - = * @ o                         ",
"                        o + $ * = ; ; > , , 9 3 3 , > ; - - ; ; : : = & @ o                         ",
"                        o @ $ * ; ; > > , < 3 s q 9 , : : : : > > : = % # o                         ",
"                        o @ % * ; > > , 9 2 c n s 1 , > : : > , : : = % + X                         ",
"                        o @ % * ; : , 9 2 w B H b w < , > , , , , ; = % + X                         ",
"                        o # % = ; > , 2 w b I ^ H d 9 , , , < 9 , ; * $ + .   .                     ",
"                X X     o @ % * > , 9 0 x F ) | ^ B 2 9 9 9 9 9 , - * $ O . o X                     ",
"                o O X . O @ % = ; < 3 d F ^ o.@.| H w 0 3 3 3 2 , - & # O o + o                     ",
"                X @ @ O O @ % = : < i S E X.&.:.@.T x s w c k 9 > = & # @ @ # X                     ",
"                . @ $ # # $ & = : < x U ] @.,.3.=.) F D D H n 9 : = * % % % %                       ",
"                  @ & & % & * = : 9 M ^ +.:.5.8.<.| ^ R ` ^ b < : - = * * * #                       ",
"                  O & = * * = - : , M ] =.3.9.q.6.+...o.+.) c , : ; = = ; = O                       ",
"                  X $ = ; ; - : : < x ..,.8.w.r.8.;.-.,.-.^ u < , : : > ; * X                       ",
"                    + = ; > : : , < x ] 2.q.r.r.0.2.5.5.-.U d 2 9 , , , = @                         ",
"                    X # - , , , 9 3 x ' 2.e.r.r.r.0.q.8.@.^ B s q 3 < ; & X                         ",
"                      + * : 9 u s B U | <.r.r.r.e.r.e.5.&.| ^ U F d < * +                           ",
"                      . @ * , d I ..-.:.7.r.r.r.r.r.r.8.<.-.*.' F 9 - @                             ",
"                        . @ * , B ..>.8.r.r.r.r.r.r.r.r.0.2.@.U q = @                               ",
"                          X + % > b | 2.q.r.r.r.r.r.r.r.0.&.I 9 * @                                 ",
"                              o # & , H +.7.q.e.e.e.q.2.' j = $ o                                   ",
"                                  o @ % = , s D K A q : & $ O                                       ",
"                                        o + + # @ @ + o .                                           ",
"                                                                                                    ",
"                                                                                                    ",
"                                                                                                    ",
"                                                                                                    ",
"                                                                                                    ",
"                                                                                                    "
};
