/* XPM */
static char *New_Project__7_1674182570[] = {
/* columns rows colors chars-per-pixel */
"50 50 62 1 ",
"  c None",
". c #F28A1F",
"X c #F28F1D",
"o c #F28C1E",
"O c #F39C17",
"+ c #F39E16",
"@ c #F3931B",
"# c #F3951A",
"$ c #F2901C",
"% c #F39819",
"& c #F39A18",
"* c #F4B00F",
"= c #F4B20E",
"- c #F5B60C",
"; c #F5B80B",
": c #F5BA0A",
"> c #F5BB0A",
", c #F3A215",
"< c #F4A314",
"1 c #F4AB11",
"2 c #F4A812",
"3 c #F4AD10",
"4 c #F5C107",
"5 c #F5C306",
"6 c #F5C605",
"7 c #F6CA03",
"8 c #F6CF01",
"9 c #F6CC02",
"0 c #F6CD02",
"q c #F6C804",
"w c #F6D100",
"e c #F6D204",
"r c #F6D206",
"t c #F6D30C",
"y c #F6D30F",
"u c #F6D312",
"i c #F6D416",
"p c #F6D623",
"a c #F6D727",
"s c #F6D728",
"d c #F6D82E",
"f c #F6D830",
"g c #F6D935",
"h c #F6D939",
"j c #F6DA3B",
"k c #F6DA3F",
"l c #F6DB45",
"z c #F6DC4A",
"x c #F6DD50",
"c c #F6DE56",
"v c #F6DE59",
"b c #F6DF5D",
"n c #F6E066",
"m c #F6E16A",
"M c #F6E16D",
"N c #F6E273",
"B c #F6E276",
"V c #F6E480",
"C c #F6E586",
"Z c #F6E589",
"A c #F6E68C",
"S c #F6E68E",
/* pixels */
"                                                  ",
"                                                  ",
"                             ..                   ",
"                           ......                 ",
"                          ........                ",
"                         .........                ",
"                  ..    ...........               ",
"                  ...  ............               ",
"                  ...  ............               ",
"                  ... ........    .               ",
"              ................                    ",
"             .................                    ",
"            ...................                   ",
"           ....................                   ",
"          .....................                   ",
"          .....................                   ",
"          ....................                    ",
"          ...........o.......                     ",
"          ...........O,......              .      ",
"           .........&9O.....              ..      ",
"      ..   ........oq9oo....              ..      ",
"       .   ........2w>......          .. ...      ",
"       ...........$qw,......         .......      ",
"        ..........2w7$......        ........      ",
"         .........>w5........       ........      ",
"          ........5w5.........    .........       ",
"           ....$..5w6......................       ",
"           ...#62.>w9@.....................       ",
"  .     ......*w>.-ww3....................        ",
"  ..    .....o>w7.3ww9#..................         ",
"  ...   ......*ww2-www6O.................         ",
"  ...   ......#9wwwwrirw53#..............         ",
"  ....  .......4wwwwcSBuww9q2o..............      ",
"   ........O*..;wwwiZSSxwwwww#...............     ",
"   ........;w*+qrtrlSSSxwwwww&...............     ",
"   .......oqwwwrmZVZSSSgwwww9#..............      ",
"    ......$9wwwfSSSSSSSpwwwww<..oOO.........      ",
"      ....#wwwwvSSSSSSSbrwwwrr769ww&.......       ",
"       ...@wwwwvSSSSSSSSMxcnNMdwwww<.......       ",
"       ...o5wwwkSSSSSSSSSSSSSSCwwww$......        ",
"        ...&wwwuSSSSSSSSSSSSSSnwww*.......        ",
"        ....&6wwhZSSSSSSSSSCmhrww>o......         ",
"        .....$;wwsbMBBNmbzstwwww>o.......         ",
"         ......#>wwwwwwwwwwwww6,........          ",
"         ........#-9wwwwwww9>,.........           ",
"          .........o+3--*2+o.........             ",
"           .........................              ",
"             .....................                ",
"               ...............                    ",
"                     ...                          "
};
