/* XPM */
static char *icons8_open_door_551674183552[] = {
/* columns rows colors chars-per-pixel */
"55 55 119 2 ",
"   c None",
".  c #1E202A",
"X  c #1F202A",
"o  c #1F212A",
"O  c #1E202B",
"+  c #1F202B",
"@  c #1E212B",
"#  c #1F212B",
"$  c #1E222A",
"%  c #20212A",
"&  c #20212B",
"*  c #20222A",
"=  c #21232A",
"-  c #21222B",
";  c #22222B",
":  c #22242A",
">  c #21222C",
",  c #22232C",
"<  c #23232C",
"1  c #22232D",
"2  c #22242C",
"3  c #23242C",
"4  c #26252D",
"5  c #27262D",
"6  c #26262E",
"7  c #29282E",
"8  c #302B2E",
"9  c #302C2F",
"0  c #302C31",
"q  c #312C31",
"w  c #322D31",
"e  c #332E31",
"r  c #362E30",
"t  c #353032",
"y  c #363033",
"u  c #373133",
"i  c #3F3432",
"p  c #3C3334",
"a  c #3B3434",
"s  c #3E3535",
"d  c #3D3635",
"f  c #403532",
"g  c #403533",
"h  c #433632",
"j  c #433733",
"k  c #433734",
"l  c #433736",
"z  c #443833",
"x  c #473933",
"c  c #413937",
"v  c #453A38",
"b  c #463A38",
"n  c #483C38",
"m  c #574237",
"M  c #594337",
"N  c #55453D",
"B  c #614839",
"V  c #604939",
"C  c #614939",
"Z  c #664C3A",
"A  c #684E3C",
"S  c #6E503B",
"D  c #6E513C",
"F  c #71513C",
"G  c #74543E",
"H  c #75553E",
"J  c #564D4F",
"K  c #584F51",
"L  c #595051",
"P  c #5B5354",
"I  c #5D5356",
"U  c #665043",
"Y  c #675143",
"T  c #6D5545",
"R  c #705747",
"E  c #775B49",
"W  c #7A5D4B",
"Q  c #7B5E4B",
"!  c #605658",
"~  c #615859",
"^  c #635A5A",
"/  c #895F40",
"(  c #8E6142",
")  c #85654E",
"_  c #966643",
"`  c #956844",
"'  c #9A6B46",
"]  c #8E6E59",
"[  c #9A7356",
"{  c #9B7456",
"}  c #95735B",
"|  c #9A765C",
" . c #A47148",
".. c #A87349",
"X. c #AB7549",
"o. c #B77748",
"O. c #B6784A",
"+. c #B67C4C",
"@. c #A27A5E",
"#. c #C27F4C",
"$. c #B0815D",
"%. c #B1825D",
"&. c #BA8860",
"*. c #BE8A61",
"=. c #C98750",
"-. c #D38D53",
";. c #D68F53",
":. c #C89265",
">. c #DEA06D",
",. c #DFA16D",
"<. c #E0A16D",
"1. c #E2A26F",
"2. c #E5A56F",
"3. c #E6A670",
"4. c #E7A671",
"5. c #E9A771",
"6. c #EAA871",
"7. c #F8E6E4",
"8. c #F9E7E5",
/* pixels */
"                                              # > o e Q u O                                                   ",
"                                        o 3 # e E &.5.6.v o                                                   ",
"              o < : : : 4 - : : - - 3 - e E *.6.5.6.6.6.k o : : : : : - : : :                                 ",
"              - A H H R H B z 5 o 7 U &.6.6.6.6.6.6.6.6.v j H H H H H H H H j -                               ",
"            o i ;.;.X.D 7 - t E %.6.6.6.6.6.6.6.6.6.6.6.n Z ;.;.;.;.;.;.;.;.X.#                               ",
"            o k ;.M O e Q *.5.6.6.6.6.6.6.6.6.6.6.6.6.6.s r M M M M M M k +.X.#                               ",
"            O k ;.k Y 6.6.6.6.6.6.6.6.6.6.6.6.6.6.6.6.6.n B o.o.o.o.o.o./ ` X.#                               ",
"            O j ;.k R 6.6.6.6.6.6.6.6.6.6.6.6.6.6.6.5.5.n B o.o.o.o.o.o./ ` X.#                               ",
"            o j ;.k T 6.6.6.6.6.6.6.6.6.6.6.6.6.6.6.6.6.n B o.o.o.o.o.o./ ` X.#                               ",
"            O k ;.k R 6.6.6.6.6.6.6.6.6.6.6.6.6.6.6.6.6.n B o.o.o.o.o.o./ ` X.#                               ",
"            O j ;.l R 6.6.6.6.6.6.6.6.6.6.6.6.6.6.6.6.6.n B o.o.o.o.o.o./ ` X.#                               ",
"            O j ;.l R 6.6.6.6.6.6.6.6.6.6.6.6.6.6.6.6.6.n B o.o.o.o.o.o.o.=.X.#                               ",
"            O j ;.z R 6.6.6.6.6.6.6.6.6.6.6.6.6.6.6.6.6.n B o.o.o.o.o.o.#.;.X.#                               ",
"            O j ;.j R 6.6.6.6.6.6.6.6.6.6.6.6.6.6.6.6.6.n B o.o.o.o.o.o.#.;.X.#                               ",
"            o j ;.k R 6.6.6.6.6.6.6.6.6.6.6.6.6.6.6.6.6.n B o.o.o.o.o.o.`  .X.#                               ",
"            O k ;.k R 6.6.6.6.6.6.6.6.6.6.6.6.6.6.6.6.6.n B o.o.o.o.o.o./ ` X.#                               ",
"            O j ;.k R 6.6.6.6.6.6.6.6.6.6.6.6.6.6.6.6.6.n B o.o.o.o.o.o./ ` X.#                               ",
"            O j ;.k R 6.6.6.6.6.6.6.6.6.6.6.6.6.6.6.6.6.n B o.o.o.o.o.o./ ` X.#                               ",
"            O j ;.k R 6.6.6.6.6.6.6.6.6.6.6.6.6.6.6.6.6.n B o.o.o.o.o.o./ ` X.#                               ",
"            O j ;.k R 6.6.6.6.6.6.6.6.6.6.6.6.6.6.6.6.6.n B o.o.o.o.o.o./ ` X.#                               ",
"            # j ;.k R 6.6.6.6.6.6.6.6.6.6.6.6.6.6.6.6.6.n B o.o.o.o.o.o./ ` X.#                               ",
"            O k ;.k R 6.6.6.6.6.6.6.6.6.6.6.6.6.6.6.6.6.n B o.o.o.o.o.o./ ` X.#                               ",
"            o j ;.k R 6.6.6.6.6.6.6.6.6.6.6.6.6.6.6.6.6.n B o.o.o.o.o.o./ ` X.#                               ",
"            O j ;.k R 6.6.6.6.6.6.6.6.6.6.6.6.6.6.6.6.6.n B o.o.o.o.o.o./ ` X.#                               ",
"            o k ;.k R 6.6.6.6.6.6.6.6.6.6.6.6.6.6.6.6.6.n B o.o.o.o.o.o./ ` X.#                               ",
"            O j ;.k R 6.6.6.6.6.6.6.6.6.6.6.6.6.6.6.6.6.n B o.o.o.o.o.o./ ` X.#                               ",
"            O j ;.k R 6.6.6.6.6.6.6.6.6.6.6.6.6.6.6.6.6.n B o.o.o.o.o.o./ ` X.o                               ",
"            O j ;.k R 6.6.6.6.6.6.6.6.6.6.6.5.>.<.6.6.6.n B o.o.o.o.o.o./ ` X.o                               ",
"            o k ;.k R 6.6.6.6.6.6.6.6.6.6.6.] ^ ! } 6.6.n B o.o.o.o.o.o.( ` X.#                               ",
"            O j ;.k R 6.6.6.6.6.6.6.6.6.6.<.^ 8.8.P 2.6.n B o.o.o.o.o.o./ ` X.#                               ",
"            O j ;.k R 6.6.6.6.6.6.6.6.6.6.<.I 8.8.K 5.5.n B o.o.o.o.o.o./ ` X.#                               ",
"            O j ;.k R 6.6.6.6.6.6.6.6.6.6.6.| K J @.6.6.n B o.o.o.o.o.o./ ` X.#                               ",
"            o j ;.k R 6.6.6.6.6.6.6.6.6.6.6.6.3.3.6.6.6.n B o.o.o.o.o.o./ ` X.#                               ",
"            O k ;.k R 6.6.6.6.6.6.6.6.6.6.6.6.6.6.6.6.6.n B o.o.o.o.o.o./ ` X.#                               ",
"            O j ;.k T 6.6.6.6.6.6.6.6.6.6.6.6.6.6.6.6.6.n B o.o.o.o.o.o./ ` X.o                               ",
"            O j ;.k R 6.6.6.6.6.6.6.6.6.6.6.6.6.6.6.6.6.n B o.o.o.o.o.o./ ` X.o                               ",
"            O j ;.l R 6.6.6.6.6.6.6.6.6.6.6.6.6.6.6.6.6.n B o.o.o.o.o.o./ _ X.o                               ",
"            O j ;.l R 6.6.6.6.6.6.6.6.6.6.6.6.6.6.6.6.6.n B o.o.o.o.o.o./ ` X.o                               ",
"            o j ;.z R 6.6.6.6.6.6.6.6.6.6.6.6.6.6.6.6.6.n B o.o.o.o.o.o./ ` X.-                               ",
"            O k ;.j R 6.6.6.6.6.6.6.6.6.6.6.6.6.6.6.6.6.n B o.o.o.o.o.o./ ` X.-                               ",
"            O j ;.k R 6.6.6.6.6.6.6.6.6.6.6.6.6.6.6.6.6.n B o.o.o.o.o.o./ ` X.#                               ",
"            O j ;.k R 6.6.6.6.6.6.6.6.6.6.6.6.6.6.6.6.6.n B o.o.o.o.o.o./ ` X.#                               ",
"            O j ;.k R 6.6.6.6.6.6.6.6.6.6.6.6.6.6.6.6.6.n B o.o.o.o.o.o./ ` X.#                               ",
"            O j ;.k R 6.6.6.6.6.6.6.6.6.6.6.6.6.6.6.6.6.n B o.o.o.o.o.o./ ` X.#                               ",
"            # j ;.k R 6.6.6.6.6.6.6.6.6.6.6.6.6.6.6.6.6.n B o.o.o.o.o.o./ ` X.#                               ",
"            O k ;.k R 6.6.6.6.6.6.6.6.6.6.6.6.6.6.6.6.6.n B o.o.o.o.o.o./ ` X.#                               ",
"            o j ;.k R 6.6.6.6.6.6.6.6.6.6.6.6.6.6.6.6.6.n B o.o.o.o.o.o./ ` X.#                               ",
"            O j ;.k R 6.6.6.6.6.6.6.6.6.6.6.6.6.6.6.6.6.n B o.o.o.o.o.o./ ` X.#                               ",
"            o k ;.k T 6.6.6.6.6.6.6.6.6.6.6.6.6.6.6.6.6.n B o.o.o.o.o.o./ _ X.o                               ",
"            O j ;.k R 6.6.6.6.6.6.6.6.6.6.6.6.6.6.6.6.6.n B o.o.o.o.o.o.( ' X.o                               ",
"            O j ;.j R 6.6.6.6.6.6.6.6.6.6.6.6.6.6.6.6.6.n B o.o.o.o.o.o.=.;.X.o                               ",
"          - - 7 G e c [ %.:.>.6.6.6.6.6.6.6.6.6.6.6.6.6.p j A S D A F F A H B # o o                           ",
"          - o - : > > o # # o 6 s N T ) { %.:.>.5.5.6.6.0 - : : : : : : - : 3 - o o                           ",
"                                # > > > # # # > 6 a N T 0 o                                                   ",
"                                                  O O 6 >                                                     "
};
