/* XPM */
static char *_14a60d0929844e2850f668c8af15e9bMsZpfKUVX0ch42Z7[] = {
/* columns rows colors chars-per-pixel */
"50 50 218 2 ",
"   c None",
".  c #000000",
"X  c #0C0603",
"o  c #0D0907",
"O  c #110409",
"+  c #160A09",
"@  c #1D0D0C",
"#  c #140704",
"$  c #191308",
"%  c #1B1614",
"&  c #1F0710",
"*  c #22170F",
"=  c #261917",
"-  c #391917",
";  c #2C0404",
":  c #3F280B",
">  c #3C270B",
",  c #272119",
"<  c #342A14",
"1  c #3E361C",
"2  c #0F132E",
"3  c #332A27",
"4  c #4E0000",
"5  c #460101",
"6  c #530303",
"7  c #5B050A",
"8  c #560904",
"9  c #541712",
"0  c #60090C",
"q  c #641918",
"w  c #660D12",
"e  c #462C13",
"r  c #692D0C",
"t  c #53122D",
"y  c #7C122D",
"u  c #73342F",
"i  c #743430",
"p  c #7C3834",
"a  c #6B2A35",
"s  c #542921",
"d  c #5E4619",
"f  c #734A13",
"g  c #7C4D13",
"h  c #7D5318",
"j  c #6B4613",
"k  c #67592D",
"l  c #6C5E30",
"z  c #7F4F35",
"x  c #776838",
"c  c #293971",
"v  c #0E1640",
"b  c #274956",
"n  c #364556",
"m  c #36437B",
"M  c #4B4157",
"N  c #655954",
"B  c #715D56",
"V  c #66554E",
"C  c #5C6B5C",
"Z  c #626A58",
"A  c #78655C",
"S  c #5E6E61",
"D  c #6E6F68",
"F  c #80361F",
"G  c #9D1D33",
"H  c #88162E",
"J  c #843C37",
"K  c #993332",
"L  c #AC233E",
"P  c #814E18",
"I  c #865615",
"U  c #895817",
"Y  c #885718",
"T  c #8B5417",
"R  c #825B21",
"E  c #885A23",
"W  c #955A21",
"Q  c #975723",
"!  c #9A4237",
"~  c #914B32",
"^  c #AE5239",
"/  c #8C6129",
"(  c #92652B",
")  c #936527",
"_  c #976E36",
"`  c #9C6B37",
"'  c #8B723D",
"]  c #A36733",
"[  c #C0633F",
"{  c #8E1E47",
"}  c #982252",
"|  c #913E48",
" . c #A42254",
".. c #AF265F",
"X. c #A72B56",
"o. c #B82A57",
"O. c #AF2660",
"+. c #B02761",
"@. c #B22861",
"#. c #BB2B62",
"$. c #DD355D",
"%. c #CA2F5F",
"&. c #CD3166",
"*. c #D53367",
"=. c #EA3A69",
"-. c #F33D6E",
";. c #FC3E71",
":. c #924A44",
">. c #83625B",
",. c #866E65",
"<. c #8D766D",
"1. c #8F786E",
"2. c #967074",
"3. c #A56B61",
"4. c #C85A51",
"5. c #D45E58",
"6. c #C3544E",
"7. c #C36442",
"8. c #C3604D",
"9. c #DC625B",
"0. c #C07F58",
"q. c #EB6A5D",
"w. c #E34263",
"e. c #F6436C",
"r. c #FA4071",
"t. c #FA4C76",
"y. c #F6526B",
"u. c #D16E66",
"i. c #E96B63",
"p. c #F76E65",
"a. c #FB726A",
"s. c #F4786D",
"d. c #FC7B72",
"f. c #ED7869",
"g. c #DBA539",
"h. c #B78B5E",
"j. c #BA946F",
"k. c #8E876E",
"l. c #DF9342",
"z. c #CFB35B",
"x. c #FA8474",
"c. c #C0956C",
"v. c #EACB67",
"b. c #F8D86D",
"n. c #F8CB6D",
"m. c #FFE073",
"M. c #1E2E86",
"N. c #1E2D89",
"B. c #23388B",
"V. c #27408C",
"C. c #2D4490",
"Z. c #344392",
"A. c #315D92",
"S. c #2C518E",
"D. c #3E7E96",
"F. c #3D7F98",
"G. c #3B7596",
"H. c #386496",
"J. c #497883",
"K. c #427E9A",
"L. c #4675A2",
"P. c #966186",
"I. c #CF788C",
"U. c #3D809A",
"Y. c #3F8097",
"T. c #44859B",
"R. c #5E8893",
"E. c #71BDBC",
"W. c #6AB4BA",
"Q. c #5C9BA3",
"!. c #75C1B8",
"~. c #76CAC1",
"^. c #7CD6C6",
"/. c #7FD9C9",
"(. c #B3968A",
"). c #BDA481",
"_. c #95B2BA",
"`. c #EC968A",
"'. c #CAAC97",
"]. c #C8B398",
"[. c #CFAA94",
"{. c #F5AB9C",
"}. c #D9B6A7",
"|. c #E6BAA8",
" X c #F7BDAE",
".X c #C68D81",
"XX c #81C4AB",
"oX c #E5C1B1",
"OX c #EEC6B3",
"+X c #EFC8B8",
"@X c #F9C2B3",
"#X c #F5C8B6",
"$X c #F9D5B8",
"%X c #EBC0A9",
"&X c #9BBCC8",
"*X c #96ADC8",
"=X c #9098C2",
"-X c #E0BBC2",
";X c #83D9C9",
":X c #93DDD0",
">X c #ACCDD3",
",X c #A1E1D6",
"<X c #BEEAE1",
"1X c #FBD3C2",
"2X c #FED8C6",
"3X c #E4DDD4",
"4X c #E9E3DA",
"5X c #E7E0D6",
"6X c #FAEDC0",
"7X c #DADDE9",
"8X c #FADCE6",
"9X c #C5EBE4",
"0X c #EEE9E3",
"qX c #E4EBEC",
"wX c #FAFAFA",
"eX c #F1F7F5",
"rX c #EEF5F4",
"tX c #DED2C5",
/* pixels */
"                              4 4 4 4 4 6 4 4 4 4 4 4 4                                             ",
"                              5 4 4 4 4 4 4 4 4 4 4 4 4                                             ",
"                            7 G G K ` ~ G G G G G G G H                                             ",
"                        4 4 0 =.;.x.m.n.t.;.r.;.r.r.r.L 4 4 4 4                                     ",
"                        4 4 w w.t.x.b.n.y.e.-.-.-.-.-.L 7 7 7 7                                     ",
"                        4 5 q -X8X$Xb.v.l.l.4.o.#.#.#.%.$.$.$.$.G 5 4                               ",
"                          4 q 3XwX6Xb.n.g.g.8...+.....*.r.r.r.r.G 5 4                               ",
"                    . . # ; & N D Z x k d d s t t  ...#.&.*.e.r...H H 7 4                           ",
"                    . . . . . . . . . . . . . . O } @.+.+.@.-.r.&.@. .7 5 4                         ",
"                    . . . . . . . . . . . . . . O { } } } } *.-.&.+. .w 0 7                         ",
"              . . . . . . . . . . . . . . . . . . O O O O & } #.@.+.+.} ..y 5 4                     ",
"              . . . . . . . . . . . . . . . . . . . . . . o } @.+.+.+.O.O.y 4 6                     ",
"                . . . . .   + i p e . O u p - . O a J e . X t t t t a I.I.| 4 4                     ",
"                              p.a.! . = i.a.i . @ 9.a.J . . . . . . = |.2X3.5 4                     ",
"                              a.d.:.. = i.d.p . @ 9.d.:.+ + . . + % 3 }.#X3.w q                     ",
"                    Y Y Y Y ) |.@X,.X = |.@XB . % }.@X`.5.6.* . A }.[.` ) j.|.[.q 4                 ",
"                    I Y I I ) |.2X1.X = |.1XB . % }.1X{.a.i.= . 1.2X%X) I c.1X|.q 6 6               ",
"                  ) h.h.h.h.j.OX1X(.N A +X$X(.N A oX2X.XK J + . <.1X|.) I 0.{.`.q 6 4               ",
"              T Y ( @X1X$X1X1X1X1X1X2X1X1X1X1X1X2X1X1X,.. . . . <.2X|.) I [ a.q.w 4 4               ",
"              T U ( |. X X X@X X X@X X@X@X@X}.}.}.+X1X1., = X . <.1X%X] W ^ 5.6.0 4 6               ",
"              U U W f.s.s.s.d.a.s.d.s.d.a.d.p o 3 }.1X+XoX}., . <.1X Xs.q.J O + 5 6 6               ",
"              U Y W q.a.p.a.a.p.p.a.a.a.p.a.i . % }.1X1X1XoX, . <.1X@Xd.a.p . X 5 4 6               ",
"                  P i i i i i i i i i i i i - . + N B (.1XOX:.| u.{.`.J i - . . ;                   ",
"                    . . . . . . . . . . . . . . . . . B 1X+Xx.a.p.p.5.+ . . . .                     ",
"                    . . . . . . . . . . . . # @ @ @ @ >.@X Xf.i.q.q.8.+ . . . .                     ",
"                        . . . . . . . . . . i 9.9.9.5.i.d.s.] W W W Y o . .                         ",
"                        . . . . . . . . . . J p.a.a.a.a.a.f.Q Y U U f X . .                         ",
"                          . . . . 2 v 2 > : ~ 7.7.7.7.7.7.7.! K F r r # .                           ",
"                                    N.c I I I Y Y P I I I T X.+.y 4 4                               ",
"                                    B.m x ) U R Y R R Y T Q X.+.y 6 6                               ",
"                              N.N.L.E.E.!.XXQ.J.J.J.J.2.w.w.#.+. . .{ 7 4                           ",
"                              M.N.L.;X;X/.;XQ.F.F.F.Y.P.;.-.#.+.@.+. .7 4 4                         ",
"                          M.Z.=X*X&X^.:X<X9X>X>X&XT.K.D ^ ^ ! ! ! ! K 8 4 6                         ",
"                        N.N.Z.7XwX9X^.:XrXwXwXwXqXR.L.S I U T U I I g 8 4 4                         ",
"                        M.M.Z.7XwX9X^.:XrXeXwXwXqXR.J.D _ _ _ _ _ _ / 9 8 8                         ",
"                        M.M.Z.7XwX9X^.:XrXwXwXwX0X_ l j.0X0X0X4X4X0XtXW h I                         ",
"                        B.M.Z.7XwX9X/.:XeXwXwXwX4X_ I j.wXwXwXwXwXwX4X( I I                         ",
"                        M.M.C.>X<X,X/.;X&X&X&X&X_.D Z k.'.].0XwXwXwX4X( I I                         ",
"                        N.N.B.!.^.^./.~.T.D.D.D.Y.Y.U.C I ) 3XwXwXwX5X( I Y                         ",
"                          N.V.W.~.~.^.!.Y.G.D.Y.Y.Y.U.C I E 3XeXwXwX5X( Y Y                         ",
"                              C.S.H.T.T.V.B.A.Y.Y.Y.Y.Z I ( 5XwXwXwX5X( Y U                         ",
"                              M.M.S.Y.G.M.N.A.Y.U.U.U.Z I ( 5XwXwXwX4X) Y I                         ",
"                                N.c b b M M n b b S S V I U ).].].].'./ Y                           ",
"                                    . X h U : . X h U Y Y U I I I I Y                               ",
"                                  , , < j f d , < h U U I I I U h j f                               ",
"                              . . l v.z.$ . l v.z.) I U I I U U : X X                               ",
"                              . . l m.z.$ . x m.v.) I U I U U U > . .                               ",
"                              . . < x k o . d x l e : : : e : : $ . .                               ",
"                              . . . . . . . . . . . . . . . . . . . .                               ",
"                              . . . . . . . . . . . . . . . . . . . .                               "
};
