/* XPM */
static char *_b3b083200d3490fb490a094f0e40f2fJGL9BiKOfjEVYWe0[] = {
/* columns rows colors chars-per-pixel */
"50 50 218 2 ",
"   c None",
".  c #000000",
"X  c #0C0603",
"o  c #0D0907",
"O  c #110409",
"+  c #160A09",
"@  c #1D0D0C",
"#  c #140704",
"$  c #191308",
"%  c #1B1614",
"&  c #1F0710",
"*  c #22170F",
"=  c #261917",
"-  c #391917",
";  c #2C0404",
":  c #3F280B",
">  c #3C270B",
",  c #272119",
"<  c #342A14",
"1  c #3E361C",
"2  c #0F132E",
"3  c #332A27",
"4  c #4E0000",
"5  c #460101",
"6  c #530303",
"7  c #5B050A",
"8  c #560904",
"9  c #541712",
"0  c #60090C",
"q  c #641918",
"w  c #660D12",
"e  c #462C13",
"r  c #692D0C",
"t  c #53122D",
"y  c #7C122D",
"u  c #73342F",
"i  c #743430",
"p  c #7C3834",
"a  c #6B2A35",
"s  c #542921",
"d  c #5E4619",
"f  c #734A13",
"g  c #7C4D13",
"h  c #7D5318",
"j  c #6B4613",
"k  c #67592D",
"l  c #6C5E30",
"z  c #7F4F35",
"x  c #776838",
"c  c #293971",
"v  c #0E1640",
"b  c #274956",
"n  c #364556",
"m  c #36437B",
"M  c #4B4157",
"N  c #655954",
"B  c #715D56",
"V  c #66554E",
"C  c #5C6B5C",
"Z  c #626A58",
"A  c #78655C",
"S  c #5E6E61",
"D  c #6E6F68",
"F  c #80361F",
"G  c #9D1D33",
"H  c #88162E",
"J  c #843C37",
"K  c #993332",
"L  c #AC233E",
"P  c #814E18",
"I  c #865615",
"U  c #895817",
"Y  c #885718",
"T  c #8B5417",
"R  c #825B21",
"E  c #885A23",
"W  c #955A21",
"Q  c #975723",
"!  c #9A4237",
"~  c #914B32",
"^  c #AE5239",
"/  c #8C6129",
"(  c #92652B",
")  c #936527",
"_  c #976E36",
"`  c #9C6B37",
"'  c #8B723D",
"]  c #A36733",
"[  c #C0633F",
"{  c #8E1E47",
"}  c #982252",
"|  c #913E48",
" . c #A42254",
".. c #AF265F",
"X. c #A72B56",
"o. c #B82A57",
"O. c #AF2660",
"+. c #B02761",
"@. c #B22861",
"#. c #BB2B62",
"$. c #DD355D",
"%. c #CA2F5F",
"&. c #CD3166",
"*. c #D53367",
"=. c #EA3A69",
"-. c #F33D6E",
";. c #FC3E71",
":. c #924A44",
">. c #83625B",
",. c #866E65",
"<. c #8D766D",
"1. c #8F786E",
"2. c #967074",
"3. c #A56B61",
"4. c #C85A51",
"5. c #D45E58",
"6. c #C3544E",
"7. c #C36442",
"8. c #C3604D",
"9. c #DC625B",
"0. c #C07F58",
"q. c #EB6A5D",
"w. c #E34263",
"e. c #F6436C",
"r. c #FA4071",
"t. c #FA4C76",
"y. c #F6526B",
"u. c #D16E66",
"i. c #E96B63",
"p. c #F76E65",
"a. c #FB726A",
"s. c #F4786D",
"d. c #FC7B72",
"f. c #ED7869",
"g. c #DBA539",
"h. c #B78B5E",
"j. c #BA946F",
"k. c #8E876E",
"l. c #DF9342",
"z. c #CFB35B",
"x. c #FA8474",
"c. c #C0956C",
"v. c #EACB67",
"b. c #F8D86D",
"n. c #F8CB6D",
"m. c #FFE073",
"M. c #1E2E86",
"N. c #1E2D89",
"B. c #23388B",
"V. c #27408C",
"C. c #2D4490",
"Z. c #344392",
"A. c #315D92",
"S. c #2C518E",
"D. c #3E7E96",
"F. c #3D7F98",
"G. c #3B7596",
"H. c #386496",
"J. c #497883",
"K. c #427E9A",
"L. c #4675A2",
"P. c #966186",
"I. c #CF788C",
"U. c #3D809A",
"Y. c #3F8097",
"T. c #44859B",
"R. c #5E8893",
"E. c #71BDBC",
"W. c #6AB4BA",
"Q. c #5C9BA3",
"!. c #75C1B8",
"~. c #76CAC1",
"^. c #7CD6C6",
"/. c #7FD9C9",
"(. c #B3968A",
"). c #BDA481",
"_. c #95B2BA",
"`. c #EC968A",
"'. c #CAAC97",
"]. c #C8B398",
"[. c #CFAA94",
"{. c #F5AB9C",
"}. c #D9B6A7",
"|. c #E6BAA8",
" X c #F7BDAE",
".X c #C68D81",
"XX c #81C4AB",
"oX c #E5C1B1",
"OX c #EEC6B3",
"+X c #EFC8B8",
"@X c #F9C2B3",
"#X c #F5C8B6",
"$X c #F9D5B8",
"%X c #EBC0A9",
"&X c #9BBCC8",
"*X c #96ADC8",
"=X c #9098C2",
"-X c #E0BBC2",
";X c #83D9C9",
":X c #93DDD0",
">X c #ACCDD3",
",X c #A1E1D6",
"<X c #BEEAE1",
"1X c #FBD3C2",
"2X c #FED8C6",
"3X c #E4DDD4",
"4X c #E9E3DA",
"5X c #E7E0D6",
"6X c #FAEDC0",
"7X c #DADDE9",
"8X c #FADCE6",
"9X c #C5EBE4",
"0X c #EEE9E3",
"qX c #E4EBEC",
"wX c #FAFAFA",
"eX c #F1F7F5",
"rX c #EEF5F4",
"tX c #DED2C5",
/* pixels */
"                                            4 4 4 4 4 4 4 4 4 4 6 6 4                               ",
"                                            4 4 4 4 4 4 4 4 4 4 4 6 5                               ",
"                                            H G G G G G G G ] ] K G G 7                             ",
"                                    4 4 4 6 L r.r.r.r.r.;.r.n.b.x.;.*.7 6 4                         ",
"                                    7 0 7 7 L -.-.-.=.e.e.y.n.b.x.t.w.0 4 6                         ",
"                              4 5 G $.*.$.$.%.#.#.#.#.4.l.l.n.b.$X8X-Xq 4 4                         ",
"                              4 5 G ;.r.;.r.*...O.O.O.8.g.g.v.m.6XwX3Xq 4                           ",
"                          4 7 y H o.-.-.*.&.#... .t t s d d k l Z D N & ; # . .                     ",
"                        4 4 7  .+.&.r.-.+.O.+.+.} O . . . . . . . . . . . . . .                     ",
"                        0 0 w  .+.&.-.*.} } } } { O . . . . . . . . . . . . . .                     ",
"                    4 4 y  .} O.+.+.#.} & O O O O . . . . . . . . . . . . . . . . . .               ",
"                    6 4 y +.O.O.@.+.+.} O . . . . . . . . . . . . . . . . . . . . . .               ",
"                    6 4 | I.I.a t t t t X . e J u O . - p i O . s p a +   . . . . .                 ",
"                    4 5 3.2X|.= . . . . . . J a.9.@ . i a.i.= . ! a.a.                              ",
"                    q 0 3.#X}.3 % + . . + + :.d.u.@ . p d.i.= . ! d.s.                              ",
"                4 q [.|.j.( ` [.}.A . * 6.5.`. X}.* . B @X|.= . ,.@X|.( I Y I Y                     ",
"              6 4 q  X$Xc.g ) %X2X1.. = i.a.{.1X}.% . B 1X|., . <.2X|.W I I I I                     ",
"              6 4 q `.{.c.I ) %X2X<.. + J | .X1X XA V (.1X+X,.N (.1XOXj.h.h.h.h.)                   ",
"              6 4 w q.p.[ P ) |.1X<.. . . . ,.1X1X1X1X1X1X1X1X1X1X1X$X1X1X1X1XOX_ I I               ",
"              6 4 0 6.5.^ T ] %X1X<.. X , , 1.1X+X}.'.|. X#X X X#X X X@X X@X X|.( I Y               ",
"              6 6 5 + # J p.f.@X1X1.. , }.|.+X1X}.3 o J d.s.d.a.a.d.s.a.d.a.a.f.Q I U               ",
"              6 6 5 . . p a.d.@X1X1.. 3 |.1X1X2X|.% . i a.p.a.p.p.a.a.a.p.a.a.i.Q I U               ",
"                  ; . . - i p `.{.u.J :.+X1X(.B N o . - i i i i i i i i u u i u P                   ",
"                    . . . . # 9.p.p.a.d.1X1XN . . . . . . . . . . . . . . . . .                     ",
"                    . . . . + 4.q.q.q.s. X#X>.+ % & @ O . . . . . . . . . . . .                     ",
"                        . . X h W W W ] s.d.i.9.9.9.9.i . . . . . . . . . .                         ",
"                        . . X f U I Y Q p.p.a.a.a.a.a.J . . . . . . . . . .                         ",
"                          . # r r u ! ! [ 7.7.7.7.7.7.~ : : 2 v 2 . . . .                           ",
"                              6 6 y ..X.Y Y I Y I I U U U P c N.                                    ",
"                              7 8 y o.X.~ E E h R R R R / x Z.B.                                    ",
"                          4 6 {  .X...#.=.w.D S S T.J.Q.XXXXE.E.L.M.M.                              ",
"                        4 4 7  .......#.r.;.P.U.Y.Y.U.Q.;X;X;X;XL.M.M.                              ",
"                        4 6 7 J ! ! ! ! ^ ^ A Y.T.&X>X>X9X<X;X^.&X*X=XB.M.                          ",
"                        4 4 8 g U U I I I T Z Y.Q.qXwXwXwXrX:X;X9XwXqXZ.M.M.                        ",
"                        8 8 8 ( _ _ _ _ ( _ D T.R.qXwXwXwXrX:X^.9XwX7XB.M.M.                        ",
"                        I I E tX0X0X0X0X0X0Xj.R ' 3XwXwXwXrX:X^.9XwXqXZ.M.B.                        ",
"                        I I ( 4XwXwXeXwXwXwXj.I ` 4XwXwXwXeX:X^.9XwX7XZ.B.N.                        ",
"                        I I ( 4XwXwXwX0X].'.k.Z D _.&X&X&X&X^./.,X9X>XB.N.N.                        ",
"                        Y I ( 4XwXwXeX3X/ I C T.K.D.D.D.D.T.!./.;X^.E.C.N.M.                        ",
"                        Y I ( 4XwXeXwX3X/ I C U.Y.D.Y.D.G.K.!.^.~.~.W.B.M.                          ",
"                        Y I ( 4XwXwXwX5X/ I C U.Y.Y.Y.A.B.V.T.T.H.C.C.                              ",
"                        Y I ( 4XwXwXwX5X( I S U.Y.Y.Y.A.M.B.G.Y.S.M.M.                              ",
"                          I ( '.].].].).E I x S C b b n M M b b c M.                                ",
"                              I I I I I U I I I f X . : U h # .                                     ",
"                              f f h I I U I I U h < < e f j < % *                                   ",
"                              X X : I I I I U I ) z.v.' X $ z.v.l . .                               ",
"                              . . : U U U U U U ) v.m.' . $ z.m.l . .                               ",
"                              . . $ : : : : : : e k x 1 . . k x < . .                               ",
"                              . . . . . . . . . . . . . . . . . . . .                               ",
"                              . . . . . . . . . . . . . . . . . . . .                               "
};
