/* XPM */
static char *player31674315287[] = {
/* columns rows colors chars-per-pixel */
"50 50 34 1 ",
"  c None",
". c black",
"X c #DF1B22",
"o c #E21B23",
"O c #E71B23",
"+ c #E31E25",
"@ c #EB1B24",
"# c #EC1B24",
"$ c #ED1B24",
"% c #ED1B25",
"& c #EE1B24",
"* c #E91C24",
"= c #ED1C24",
"- c #ED1C25",
"; c #EE1C25",
": c #ED1E26",
"> c #EE1E27",
", c #DB222A",
"< c #DA262C",
"1 c #DA282F",
"2 c #D62D34",
"3 c #E22028",
"4 c #E7222A",
"5 c #E82128",
"6 c #ED2028",
"7 c #EE212A",
"8 c #ED232C",
"9 c #EE252C",
"0 c #EE262F",
"q c #EE2A33",
"w c #EE2C35",
"e c #EE2D35",
"r c #EE2F37",
"t c #EE3239",
/* pixels */
"                                                  ",
"                                                  ",
"                                                  ",
"                    8&&&:$&&:8                    ",
"                 0&&@&&@$$$$$$$$8                 ",
"               6:&&@@&&@$$$$$$$$$$6               ",
"             r@&&&&&&&&&$$$$$$$$$$$:r             ",
"            8&&&&@@&&@@&$$$$$$$$$$$$:8            ",
"           :&&@@$$$$$$$$$$$$$$$$$$$$$$>           ",
"          :&&@&&$$$$$$$$$$$$$$$$$$$$$$&:          ",
"         6&&&&@&$$$$$$$$$$$$$$$$$$$$$$$$6         ",
"        0&@&@&&&$$$$$$$$$$$$$$$$$$$$$$$$:0        ",
"        :&&&@&&@$$$$$$$$$$$$$$$$$$$$&&&@&&        ",
"       6&&@&@&&@$$$$$$$$$$$$$$$$$$$$@@&&&&6       ",
"       &@@&&&&&&&&$$:$$:$$$$$$$$$$&&:$&&@&&       ",
"      :&&&&@&@@&:q.....8$$$$$$$$@:8.....w&&:      ",
"      &$&@@&@&&:.........&$$$$$$&.........&:      ",
"     4&$&&&&&&& .........t$$$$$$ ......... $5     ",
"     :$$@&&@&@& ......... :$$$$$ ......... &&     ",
"     $$$@&&@&&6 ......... w$$$$$ ......... 6:     ",
"     :$$&&&@$$  .........  $$$$: .........  :     ",
"     &$$&@&&$$r  .......   $$$$:  .......   :     ",
"     :&@@&@&$$:   .....   9$$$$$   .....   :&     ",
"     &&&&&@&$$:           $$$$$$           &&     ",
"     &&&&@&&&@&8         6&&@@&&8         q@:     ",
"     :&&&@&@&&@&6       6:@&&&&@&6       q:&$     ",
"     :@&&&@&@@&&::     ::&&&&&&@$$:     :&@&$     ",
"     &@&@&&&&&&@&&$$$:&&&&&@@@&&$$$&&:&&&&&&&     ",
"     &&&&&@@@&&&&&&@&&@@@&&&&&&@@&&&&&&@@@&&&     ",
"     :&&@&&&&&@@&@&&@&&&&&@@&@&&&&@&@@&&&&&@&     ",
"     :@&@&&&&@&&@&@&@&&&&@&&@&@&&@&@&&@&&&&@$     ",
"     &@&&&@@&&@&&&@&&&@@&&@&&&@&&@&&&@&&@@&&:     ",
"     :&&&@&&@@&&&@&&&@&&@@&&&&@@&&&@&@&&&@&&@     ",
"     &&&&&@&&&&@&@&@&&@&&&&@@&&&&@&&&@&@&&@&:     ",
"     :&&@@&&&&&@&&@&@@&&&&&@@&&&@&@&&&@&@@&&:     ",
"     &@@&&&@@@&&@&&&&&&@@@&&&&@@&&@&@&&&&&&@$     ",
"     :&&@&&&&&&@&&@@@&&&&&@&&@&&&@&&@&&@$$$$$     ",
"     &@&&&@@&@&&@&&&&&@@&@&&&&@&&&@&@&&@$$$$$     ",
"     &&&&@&&@&@&@&&&&@&&&&@@@@&&@@&&&&&&$$$$:     ",
"     :&&&&@&&&@&&&@@&&@&@&&&&&&@&&&@&@@&$$$$$     ",
"     &&@@&&&@&@&&@&&&@@&$$&@@&&&@&&&@&@&$$$$=     ",
"     &&&@&@&&:@&&@&@&&&&$$:&&&@@&&@&&:&&$$$$$     ",
"     :@&&&&@Xo@&&&@&@@&@XX@&&@&&&@&@@oo&$$$$&     ",
"     &&&&@+    &@&&&&&+    3&&@&&&&@    @$$$&     ",
"     :&@&+     <&&@@&@      O&&&@&:      @@&@     ",
"     &&&3       3&&&@        @&@&@2       &&&     ",
"     O:o         O:&,         &:&1        1&&     ",
"                                                  ",
"                                                  ",
"                                                  "
};
