/* XPM */
static char *player41674315287[] = {
/* columns rows colors chars-per-pixel */
"50 50 38 1 ",
"  c None",
". c black",
"X c #1D0708",
"o c #68171A",
"O c #911F23",
"+ c #DF1B22",
"@ c #E71B23",
"# c #E21B24",
"$ c #E31C24",
"% c #E11E25",
"& c #E41F26",
"* c #EB1B24",
"= c #EC1B24",
"- c #ED1B24",
"; c #EE1B24",
": c #EA1C24",
"> c #EC1C24",
", c #ED1C24",
"< c #ED1C25",
"1 c #EE1C25",
"2 c #ED1D26",
"3 c #EC1E26",
"4 c #ED1E26",
"5 c #DB222A",
"6 c #DA262C",
"7 c #DA282F",
"8 c #D62D34",
"9 c #E22028",
"0 c #E82129",
"q c #ED2028",
"w c #EE212A",
"e c #EE242C",
"r c #EE252D",
"t c #EE262E",
"y c #E22A32",
"u c #EF2A33",
"i c #EE2D35",
"p c #EE2F37",
/* pixels */
"                                                  ",
"                                                  ",
"                                                  ",
"                    t;;-;;;;;t                    ",
"                 t;-3---*;;;;;;*t                 ",
"               q3;------;;**;*;;--q               ",
"             i*;--------;*;;*;*;---3i             ",
"            t3;;--------;;*;;;*;---;;t            ",
"           3;;**--------*;;*;;;*------3           ",
"          3;;*;;--------*;;*;*;;-------3          ",
"         q;;;;*;--------;;;;*;*;--------q         ",
"        t;*;*;;;--------;**;;;*;--------3t        ",
"        3;;;*;;*--------;**;;;*;----;;;*;;        ",
"       q;;*;*;;*--------;;;;*;*;----**;;;;q       ",
"       ;**;;;;;;;;--3-;;*;;*;*;;--;33;;;;;;       ",
"      3;;;;*;**;3u     t*;;*;;;*--t     u;;3      ",
"      ;-;;;*;;;3     ....;------;     ....;3      ",
"     0;-**;;;;;     .....O------     ......;0     ",
"     3--;;*;*;3     ......3-----     ......;;     ",
"     ---;*;;*;q    .......y-----    .......q3     ",
"     3--;;*;*;     ........----3    ........3     ",
"     ;--*;*;;;i    .......X----3    .......o2     ",
"     3;;;*;;;*3    .......t-----    .......23     ",
"     ;**;;;*;;;     ......------     ......;;     ",
"     ;;;;*;;;*;e    .....q;;**;;q    .....u;3     ",
"     3;;;*;*;;*;q    ...e1*;;;;*3q    ...u2;-     ",
"     3;;;;*;**;;33     3;;;;;;;*--3     3;;*-     ",
"     ;;**;;;;;;*;;---3;;;;;***;;---;;3;;;;;;;     ",
"     ;;;;;***;;;;;;*;;***;;;;;;*;*;;;**;;;*;;     ",
"     3;;*;;;;;**;;;;*;;;;;**;*;;;*;*;;;;*;*;;     ",
"     3;**;;;;*;;*;*;*;;;;*;;*;*;;;*;*;;*;*;;-     ",
"     ;;;;;**;;*;;;*;;;**;;*;;;*;*;;;*;;*;;;*3     ",
"     3;;;;;*;;;*---------------------------->     ",
"     ;;;*;;*;*;;---------------------------->     ",
"     3*;;;;;*;*;----------------------------3     ",
"     ;;;;**;;;*;-----------------------------     ",
"     3;*;**;;;*;-----------------------------     ",
"     ;;;;;;;*;*;-----------------------------     ",
"     ;;;*;;*;*;;----------------------------3     ",
"     3;;*;;*;;;*-----------------------------     ",
"     ;*;;;*;;;;*;;**;;--*;*;;;;*------*;---->     ",
"     ;;;;*;;2*;;*;;;;**2;;;;**;;------3;-----     ",
"     3;*;;**+$*;*;;;;;*2++2*;;*;-----##;----;     ",
"     ;;**;&    *;;***;$    9;*;;---2    ->--;     ",
"     3;;3$     6;;;;*2      @;;*---      ;--;     ",
"     ;;;&       9;*;*        *;;-*8       --;     ",
"     @2$         @3*5         ;337        733     ",
"                                                  ",
"                                                  ",
"                                                  "
};
