/* XPM */
static char *player11674315286[] = {
/* columns rows colors chars-per-pixel */
"50 50 38 1 ",
"  c None",
". c black",
"X c #1D0708",
"o c #68171A",
"O c #911F23",
"+ c #DF1B22",
"@ c #E71B23",
"# c #E21B24",
"$ c #E31C24",
"% c #E11E25",
"& c #E41F26",
"* c #EB1B24",
"= c #EC1B24",
"- c #ED1B24",
"; c #EE1B24",
": c #EA1C24",
"> c #EC1C24",
", c #ED1C24",
"< c #ED1C25",
"1 c #EE1C25",
"2 c #ED1D26",
"3 c #EC1E26",
"4 c #ED1E26",
"5 c #DB222A",
"6 c #DA262C",
"7 c #DA282F",
"8 c #D62D34",
"9 c #E22028",
"0 c #E82129",
"q c #ED2028",
"w c #EE212A",
"e c #EE242C",
"r c #EE252D",
"t c #EE262E",
"y c #E22A32",
"u c #EF2A33",
"i c #EE2D35",
"p c #EE2F37",
/* pixels */
"                                                  ",
"                                                  ",
"                                                  ",
"                    t--;-----t                    ",
"                 t;;*;;*-----4;-t                 ",
"               44-*;*;;*--------;4q               ",
"             i4;;*;;;;;;-----------:i             ",
"            t---;;;*;**;-----------;;t            ",
"           q--------------------;;**;;4           ",
"          4---------------------*;;;*;-:          ",
"         q----------------------*;;;;;;;q         ",
"        t4----------------------;;**;**;4t        ",
"        ------------------------*;;;------        ",
"       q------------------------;;*;------q       ",
"       ------4--;;----------;44;;;---------       ",
"      4--u     t*4--------t     u4---------4      ",
"      4-....     --------....     4--------4      ",
"     0-......     ------O.....     -------;;0     ",
"     4-......     ------......     4----;*;;;     ",
"     -q.......    -----y.......    q----;;;*4     ",
"     4........    4;;*;........     ;**;*;;*;     ",
"     4o.......    4*;;;X.......    i;;;;*;;*4     ",
"     44.......    4;**;t.......    4*;;*;;;;-     ",
"     --......     ;;;;;*......     ;*;;*;**;-     ",
"     ;;u.....    q;*;**;q.....    e;;;;;----1     ",
"     4;;u...    t*;;;;;;-t...    w4;;;*;----1     ",
"     >*;-4     4;;*;*;;*;;*     4---**;;----1     ",
"     ;*;---;4;--*;;;*;;*;;--44------;;;*----1     ",
"     ---;;***;;;;;;**;;;;;;*;*;;------------1     ",
"     ---*;;;;;**;*;;;;*;**;;;;;*------------4     ",
"     ;--*;;;;*;;*;*;;*;*;;*;;;;*-------------     ",
"     4--;;**;;*;;;*;;*;;;*;;**;;------------4     ",
"     4;*;;*;;;*;-----------------------------     ",
"     ;;;;*;;*;*;-----------------------------     ",
"     4;;;;**;*;;----------------------------4     ",
"     ;***;;;;;;*-----------------------------     ",
"     -;;;;;***;;----------------------------1     ",
"     -*;**;;;;;*----------------------------1     ",
"     ;;;;;*;;;;*----------------------------1     ",
"     4;*;*;;**;;----------------------------1     ",
"     4--;*;;;;*;;;**;;----------------------1     ",
"     ---;;;4*;;;*;;;;*-4-------------4------1     ",
"     ---**;##**;*;;;;;;:#+:---------##*-----1     ",
"     ---;*    *;;;***;%    &-------    94---1     ",
"     ----      4;;;;-@      :-----6     %-;;-     ",
"     ;--       8*;*;*        *---9       %;;-     ",
"     447        74-4         5*4@         %4*     ",
"                                                  ",
"                                                  ",
"                                                  "
};
