/* XPM */
static char *c3ade81792eb418b90b4c5c73fcaf6cafelGXrfvuKGZM2Ri[] = {
/* columns rows colors chars-per-pixel */
"50 50 71 1 ",
"  c #633D0D",
". c #663F0F",
"X c #664010",
"o c #674110",
"O c #694212",
"+ c #694312",
"@ c #6B4514",
"# c #6E4615",
"$ c #6F4817",
"% c #704817",
"& c #704918",
"* c #714918",
"= c #734C1A",
"- c #764C1B",
"; c #764F1C",
": c #79511F",
"> c #7D5120",
", c #7C5421",
"< c #7D5522",
"1 c #823A26",
"2 c #843D28",
"3 c #88432B",
"4 c #8B482D",
"5 c #8D4A2F",
"6 c #835B27",
"7 c #855C28",
"8 c #8F4D30",
"9 c #925333",
"0 c #965836",
"q c #975A37",
"w c #995D38",
"e c #8D622E",
"r c #916733",
"t c #946834",
"y c #9B603A",
"u c #9C603B",
"i c #9E643D",
"p c #996D38",
"a c #9B6F3A",
"s c #9E723C",
"d c #A0693F",
"f c #A36C40",
"g c #A56E42",
"h c #A57041",
"j c #A67043",
"k c #A67143",
"l c #A47741",
"z c #A77244",
"x c #A87445",
"c c #A77B44",
"v c #AC7947",
"b c #AA7D46",
"n c #AD7C48",
"m c #AD7C49",
"M c #B47C49",
"N c #B0814B",
"B c #B1824C",
"V c #B3844D",
"C c #B4854E",
"Z c #B4864E",
"A c #B5864F",
"S c #B5874F",
"D c #B68851",
"F c #BB8C59",
"G c #C49567",
"H c #C49668",
"J c #C8986D",
"K c #D6A683",
"L c #DAA989",
"P c #F8C5B8",
"I c #FCC8BE",
/* pixels */
"MMMMMMMMMMMMX6MMMMMMMMMMMMMMMMMMMMMM;$MMMMMMMMMMMM",
"ZZZZZZZZZZZZ.:ZZZZZZZZZZZZZZZZZZZZZZ-$ZZZZZZZZZZZZ",
"ZZx5NZZZZZZZ+,VZZZZZZZZZZZZZZZZZZZZZ;$VZy5ZZZZZZZZ",
"ZZx8NZZZZZZZ.7VZZZZZZZZZZZV9gZZZZZZZ;$ZZkwZZZZZZZZ",
"ZZZZZZZZZZZZ+<ZZZZZZZZZZZZV8gZZZZZZZ;$ZZZZZZZZZZZZ",
"ZZZZZZZZZZZZ+<ZZZZZZZZZZZZZZZZZZZZZZ;$ZZZZZZZZZZZZ",
"ZZZZZZZZZZZZ+<ZZZZZZZZZZZZZZZZZZZZSV;$ZZZZZZZZZZZZ",
"ZZZZZZZZZZZV+,ZZZZZZZZZZZZZZZZZZZZZS;$ZZZZZZZZZZZZ",
"ZZZZZZZZZZZZ+<ZZZZZZZZZZZZZZZZZZZZZZ;&ZZZZZZZZZZZZ",
"ZZZZZZZZZZZZ+<ZZZZZZZZZZZZZVZZZZZZZZ;$SVZZZZZZZZZZ",
"666666666666X#6666666666766666666666++666666666666",
"                                                  ",
" 6ZZZZZZZZZZZZZZZZZZZZZZ%-ZZZZZZZZZZZZZZZZZZZZZZ<+",
" 6ZZZZZZZZZZZZZZZZZZZZZZ%-ZZZZZZZZZZZZZZZZZZZZZZ:+",
" 6ZZZZZZZZZZZZZZZZZZZZZS*-ZZZZZZZZZZZZZZZZZZZZZZ<+",
" 6ZZZZZVnZZZZZZZZZZZSVZZ*-ZZZZZZZZZZZZZZZZZZZZZZ<+",
" 6ZZZZDy3VZZVDVZZZZZZZZZ*;CCCDVZZSSZZZZZZZZZZZZZ<+",
" 6ZZZZVnsZZZVVkSZZZZZZZZ*-CSCCZZSPKZZZZZZZZZZZZZ:+",
" 6ZZZZZZVVZZVd1MZZZZZZZZ*;SVZZZZZLGZZZZZMsZZZZZZ<+",
" 6ZZZZZZVVZZVVzZZZZZZZZZ&-VSZZZZZZZZZZZZ03ZZZZZZ<+",
" 6ZZZZZZDVDVZZZZZZZZZZZZ&;ZZZZZZZZZZZZZZVvZZZZZZ:+",
" 6ZZZZZZVVZDZZZZZZZZZZZZ&;ZZZZZZZZZZZZZZVVZZZZZZ<+",
" 6ZZZZZZZZZZZZZZZZZZZZZZ&;ZZZZZZZZZZZZZZSVSZZZZZ<+",
" ;tttttttttttttttttttttt+$tttttttttttttttttttttt%X",
"                                      X        XX ",
"llllllllllllX:llllllllllllllllllcsll-%cslllllllsls",
"VZZZZZZZZZZZ+<ZZZZZZZZZZVDVZVSZZZZZZ;$VVZZZZSZZZSZ",
"DVZZZZZZZZZZ+<ZZZZZZZZZZZVVZDVVnZZZZ;$VSZZZZZZZZSD",
"ZZZZZZZZZZZZ+<ZZZZZZZZZZZZZZVZy3ZZZZ:-ZZZZZZZZZZZZ",
"ZZZZZZZZZZZZ+<ZZZZZZZZZZZZZVZZnsZZZZbcZZZZZZZZZZZZ",
"ZZZZZZZZZZZZ+<ZZZZZZZZZZZZVDCCVVZZZZVSZZZZZZZZZZZZ",
"ZZZZZZZZZZZV+<ZZZZZZZZZZZZDVDCCVZZZS7<ZZZZZZZZZZZZ",
"ZZZZZZZZZZZZ+<SZZZZVnZSVDZZZZZZZZZZZssVZZZZZZZZZZZ",
"ZZZZZZZZZZZZX<ZZZZZi2VDVVZZZZZZZZZZZVVZZZZZZZZZZZZ",
"ZZZZZZZZZZZZ+<ZZZZSnsVVSZZZZZZZZZZZZteZZZZZZZZZZZZ",
"ZZZZZZZZZZZZ+<ZZVDVZVVSVZZZZZZZZZZZZ;&ZZZZZZZZZZVV",
"ssssssssssssX-ssssssssssssssssssssss*@ssssssssssss",
"            X                                     ",
" <pppppppppppppppppppppp@*pppppppppppppppppppppp=+",
" 6VVZZZZZZZZZZVSZZZZZZZZ&-VSZZZZZZZZDVZZZZZZZZZZ<+",
" 6ZZVVVVZZZZZZZZZZZZZZZZ*;ZZSVVVZZZZZZZZZZZZZZZZ<+",
" 7ZZZVk0ZZZZZZZZZZZZZZZZ*;ZZVVk0ZZZZZZZZZZZZZZZZ:X",
" 6ZZZDs4VZZZZZZZZZZZZZZZ&-VZSDs4VZZZZZZZZZZZZZZZ<+",
" 6ZZZZZZZZZZZZZZZZZZZZZZ&-DVSVZZZZZZZZZZZZZZZZZZ:+",
" 6ZZZZZZZZZZZZZZZZZZZZZZ&-DZZZZZZZZZZZZZZZZZZZZZ<+",
" 6ZZZZZZZZZZZZZZZZZZZZZV&-DVZZZZZZZFHZZZZZZZZZZZ<+",
" 6ZZZZZZZZZZZZZZZZZZZZDV*;VZZZZVZZZLIZZZZZZZZZZZ:+",
" 6ZZZZZZZZZZZZZZZZZZZZVV&;ZZZZZDZZZFJZZZZZZZZZZZ<+",
" 6ZZZZZZZZZZZZZZZZZZZZZZ*-SVSVSVZZZZZZZZZZZZZZZZ<+",
" 6ZZZZZZZZZZZZZZZZZZZZZZ*;VSVSVSZZZZZZZZZZZZZZZZ<+"
};
